<svg width="222" height="26" viewBox="0 0 222 26" fill="none" xmlns="http://www.w3.org/2000/svg">
<g opacity="0.25">
<path d="M94.529 12.958C94.529 14.8677 95.2452 16.6978 96.5979 18.0505C97.9505 19.4032 99.7806 20.1193 101.69 20.1193C105.669 20.1193 108.852 16.9365 108.852 12.958C108.931 11.0483 108.215 9.13865 106.862 7.78596C105.51 6.43327 103.6 5.63758 101.69 5.71715C97.7118 5.79672 94.529 8.97951 94.529 12.958ZM97.2344 12.958C97.2344 10.4118 99.0645 8.02467 101.77 8.02467C104.475 8.02467 106.305 10.0139 106.305 12.958C106.385 14.2311 105.908 15.4247 105.032 16.3795C104.157 17.3343 102.963 17.8118 101.77 17.8118C99.0645 17.8913 97.2344 15.8225 97.2344 12.958ZM78.8538 12.958C78.7742 14.8677 79.4903 16.7774 80.843 18.13C82.1957 19.4827 84.1054 20.1989 86.0151 20.1193C88.1634 20.1989 90.2323 19.1645 91.5054 17.4139L91.5849 17.3343L89.5957 15.6634L89.5161 15.8225C88.8 17.1752 87.4473 17.9709 85.9355 17.8913C83.2301 17.8913 81.4 15.743 81.4 12.958C81.3204 11.6849 81.7979 10.4913 82.5936 9.5365C83.4688 8.58166 84.6624 8.02467 85.9355 8.02467C87.3677 8.02467 88.7204 8.82037 89.5161 10.0139L89.5957 10.0935L91.5849 8.50209L91.5054 8.42252C90.1527 6.75155 88.0839 5.79672 85.9355 5.79672C84.0258 5.79672 82.1957 6.51284 80.9226 7.86553C79.6495 9.21822 78.8538 11.0483 78.8538 12.958ZM179.748 14.072V19.801H182.295V14.072L187.308 6.115H184.523L181.022 11.6053L177.68 6.115H174.735L179.748 14.072ZM133.2 6.115V19.801H135.826V14.7085C135.985 14.7085 136.224 14.7881 136.462 14.7881C139.804 14.7881 142.112 13.3559 142.112 10.4913C142.112 7.78596 140.123 6.115 136.383 6.115H133.2ZM135.826 8.18381H136.462C138.611 8.18381 139.486 8.97951 139.486 10.4118C139.486 11.844 138.531 12.6397 136.462 12.6397C136.224 12.6397 136.065 12.6397 135.826 12.5602V8.18381ZM115.854 12.401L120.151 20.1989L124.368 12.401L126.039 19.801H128.744L125.163 5.87629L120.23 15.1064L115.138 5.87629L111.716 19.8806H114.262L115.854 12.401ZM45.5935 14.2311L36.5226 5.87629V19.8806H38.9892V11.7645L48.1398 20.1989V6.115H45.5935V14.2311ZM27.929 6.115V19.801H30.5548V6.115H27.929ZM24.5871 19.801L17.9032 5.79672L11.2194 19.801H13.8452L15.1979 16.8569H20.4495L21.7226 19.801H24.5871ZM16.1527 14.7085L17.9032 10.73L19.4946 14.7085H16.1527ZM6.6043 12.5602C7.71828 12.0827 8.43441 10.8892 8.43441 9.69564C8.43441 7.30854 6.52473 6.115 3.26237 6.115H0V19.801H3.89892C7.4 19.801 9.30968 18.3688 9.30968 15.8225C9.23011 14.2311 8.11613 12.8784 6.6043 12.5602ZM3.73978 13.9924C5.56989 13.9924 6.6043 14.4698 6.6043 15.9021C6.6043 17.1752 5.64946 17.7322 3.73978 17.7322H2.62581V13.9924H3.73978ZM2.62581 11.9236V8.18381H3.10323C5.0129 8.18381 5.96774 8.66123 5.96774 10.0935C5.96774 11.5257 5.0129 11.9236 3.1828 11.9236H2.62581ZM67.714 19.8806H70.7376C70.7376 19.8806 68.4301 17.2548 68.0323 16.7774C68.3505 16.3795 70.3398 13.3559 70.3398 13.3559H67.8731L66.6796 15.186L64.5312 12.7193C66.3613 11.7645 67.4753 10.4118 67.4753 8.97951C67.4753 7.06983 65.8043 5.79672 63.6559 5.79672C61.2688 5.79672 59.6774 7.22897 59.6774 9.13865C59.757 10.4118 60.314 11.5257 61.1893 12.401C59.757 13.1967 58.4839 14.3903 58.4839 16.3795C58.4839 18.5279 60.2344 20.1989 62.7806 20.1989C64.2129 20.1989 65.6452 19.6419 66.6 18.5279L67.714 19.8806ZM62.0645 9.21822C62.0645 8.82037 62.2237 8.34295 62.5419 8.10424C62.8602 7.78596 63.2581 7.62682 63.6559 7.62682C64.0538 7.62682 64.4516 7.70639 64.7699 8.02467C65.0882 8.26338 65.2473 8.66123 65.1677 9.05908C65.1677 10.0139 64.2129 10.73 63.2581 11.2075C62.6215 10.73 62.1441 10.0139 62.0645 9.21822ZM65.1677 17.0161C64.6903 17.6526 63.8946 18.0505 63.0194 18.0505C62.4624 18.13 61.9849 17.8913 61.5871 17.5731C61.1893 17.1752 60.9505 16.6978 60.9505 16.1408C61.0301 15.186 61.5871 14.3903 62.3828 13.9128H62.4624L65.1677 17.0161ZM169.086 14.2311L160.015 5.87629V19.801H162.561V11.7645L171.632 20.1989V6.115H169.086V14.2311ZM156.673 19.801L149.989 5.79672L143.305 19.801H145.931L147.284 16.8569H152.535L153.809 19.801H156.673ZM148.239 14.7085L149.989 10.73L151.581 14.7085H148.239ZM214.123 13.5946L211.895 3.7279L205.768 11.6849L214.123 13.5946ZM222 12.958C222 19.6419 216.51 25.1322 209.826 25.1322C203.142 25.1322 197.652 19.6419 197.652 12.958C197.652 6.27414 203.142 0.783813 209.826 0.783813C210.462 0.783813 211.099 0.863383 211.735 0.942953L210.701 2.29564H209.826C207.12 2.29564 204.574 3.33005 202.585 5.16016C200.675 7.06983 199.561 9.61607 199.561 12.3214C199.561 17.9709 204.176 22.586 209.826 22.586C215.475 22.586 220.09 17.9709 220.09 12.3214C220.09 8.18381 217.465 4.44403 213.566 3.01177L213.168 1.3408C218.419 2.77306 222 7.54725 222 12.958Z" fill="white"/>
</g>
</svg>
