<svg width="28" height="28" viewBox="0 0 28 28" fill="none" xmlns="http://www.w3.org/2000/svg">
<g opacity="0.4" clip-path="url(#clip0_5_16)">
<path d="M25.5 3.5H2.5C1.94687 3.5 1.5 3.94687 1.5 4.5V27.5C1.5 28.0531 1.94687 28.5 2.5 28.5H25.5C26.0531 28.5 26.5 28.0531 26.5 27.5V4.5C26.5 3.94687 26.0531 3.5 25.5 3.5ZM8.91562 24.8031H5.20625V12.8719H8.91562V24.8031ZM7.0625 11.2406C6.63727 11.2406 6.22159 11.1145 5.86802 10.8783C5.51446 10.642 5.23889 10.3063 5.07616 9.91339C4.91343 9.52053 4.87085 9.08824 4.95381 8.67118C5.03677 8.25412 5.24154 7.87103 5.54222 7.57035C5.8429 7.26966 6.226 7.06489 6.64306 6.98194C7.06012 6.89898 7.49241 6.94156 7.88527 7.10428C8.27813 7.26701 8.61391 7.54258 8.85016 7.89615C9.0864 8.24971 9.2125 8.66539 9.2125 9.09062C9.20937 10.2781 8.24688 11.2406 7.0625 11.2406ZM22.8031 24.8031H19.0969V19C19.0969 17.6156 19.0719 15.8375 17.1688 15.8375C15.2406 15.8375 14.9438 17.3437 14.9438 18.9V24.8031H11.2406V12.8719H14.7969V14.5031H14.8469C15.3406 13.5656 16.55 12.575 18.3563 12.575C22.1125 12.575 22.8031 15.0469 22.8031 18.2594V24.8031V24.8031Z" fill="white"/>
</g>
<defs>
<clipPath id="clip0_5_16">
<rect width="28" height="28" fill="white"/>
</clipPath>
</defs>
</svg>
