<svg width="94" height="28" viewBox="0 0 94 28" fill="none" xmlns="http://www.w3.org/2000/svg">
<g opacity="0.25" clip-path="url(#clip0_5_228)">
<path fill-rule="evenodd" clip-rule="evenodd" d="M37.5756 0.862666C37.1434 0.862666 36.9517 1.12185 36.7914 1.49271C26.7032 24.894 25.8566 26.744 25.8566 26.744C31.5735 26.744 31.5735 26.744 31.5735 26.744C32.7632 23.8081 32.7632 23.8081 32.7632 23.8081C41.3764 23.8081 41.3764 23.8081 41.3764 23.8081C42.5706 26.744 42.5706 26.744 42.5706 26.744C49.2945 26.744 49.2945 26.744 49.2945 26.744C49.2945 26.744 48.7197 25.5419 38.3597 1.49271C38.1993 1.12185 38.0078 0.862666 37.5756 0.862666ZM34.5812 19.3308C37.0631 13.2045 37.0631 13.2045 37.0631 13.2045C39.5539 19.3308 39.5539 19.3308 39.5539 19.3308H34.5812ZM66.1332 14.9875C68.0982 13.8078 69.5865 11.7478 69.5865 8.79414C69.5865 6.47498 68.6642 4.5625 67.06 3.27125C65.4337 1.95745 63.5533 1.24689 59.7078 1.24689C51.4823 1.24689 51.4823 1.24689 51.4823 1.24689C51.4823 26.744 51.4823 26.744 51.4823 26.744C57.5601 26.744 57.5601 26.744 57.5601 26.744C57.5601 17.2529 57.5601 17.2529 57.5601 17.2529C59.4449 17.2529 59.4449 17.2529 59.4449 17.2529C61.4947 17.2529 62.5285 18.0349 63.3884 20.1038C64.1147 21.8554 64.6271 23.9333 65.2956 26.744C72.0729 26.744 72.073 26.744 72.073 26.744C71.1104 23.8528 70.6292 22.4854 69.9074 20.4479C68.9181 17.6596 67.7195 15.9437 66.1332 14.9875ZM62.2477 11.8596C61.5125 12.427 60.5634 12.6057 58.8568 12.6057C57.5601 12.6057 57.5601 12.6057 57.5601 12.6057C57.5601 12.6057 57.5468 5.80932 57.5601 5.80932C58.8568 5.80932 58.8568 5.80932 58.8568 5.80932C60.6391 5.80932 61.5258 6.00588 62.2433 6.55095C63.0632 7.17654 63.4285 8.11493 63.4285 9.20081C63.4285 10.3849 63.0186 11.2562 62.2477 11.8596ZM12.2216 12.0517C1.89738 1.69382 1.89738 1.69382 1.89738 1.69382C1.58548 1.38548 1.27358 1.16656 0.783447 1.16656C0.783447 26.744 0.783447 26.744 0.783447 26.744C6.09043 26.744 6.09043 26.744 6.09043 26.744C6.09043 14.5138 6.09043 14.5138 6.09043 14.5138C12.2216 20.6624 12.2216 20.6624 12.2216 20.6624C18.3573 14.5138 18.3573 14.5138 18.3573 14.5138C18.3573 26.744 18.3573 26.744 18.3573 26.744C23.6643 26.744 23.6643 26.744 23.6643 26.744C23.6643 1.16656 23.6643 1.16656 23.6643 1.16656C23.1742 1.16656 22.8623 1.38548 22.5504 1.69382L12.2216 12.0517ZM90.997 14.0222C88.2878 11.4395 83.373 10.9971 81.4302 9.47789C80.6683 8.88356 80.3964 8.0077 80.646 7.17209C80.9534 6.13547 81.9827 5.45627 83.4933 5.45627C85.5742 5.45627 87.4411 6.40801 88.7334 7.94963C92.2045 4.30787 92.2045 4.30787 92.2045 4.30787C90.1592 2.1273 86.8932 0.813599 83.4531 0.813599C79.4429 0.813599 76.4174 2.75734 75.0673 5.85839C74.0201 8.26688 74.3811 10.7781 75.6688 12.5835C78.1596 16.0778 83.4176 16.185 85.6944 17.9768C86.5054 18.6158 86.96 19.648 86.4743 20.7607C86.0554 21.7348 84.9994 22.3961 83.2705 22.4408C80.8733 22.4989 78.7344 21.3728 77.1615 19.4023C73.6859 23.0485 73.6859 23.0485 73.6859 23.0485C75.9851 25.8413 79.4073 27.1863 83.5423 27.1863C87.5615 27.1863 91.0905 25.6179 92.5298 22.2754C93.7908 19.3531 93.3362 16.2476 90.997 14.0222Z" fill="white"/>
</g>
<defs>
<clipPath id="clip0_5_228">
<rect width="94" height="28" fill="white"/>
</clipPath>
</defs>
</svg>
