<svg width="80" height="57" viewBox="0 0 80 57" fill="none" xmlns="http://www.w3.org/2000/svg">
<path opacity="0.25" fill-rule="evenodd" clip-rule="evenodd" d="M38.816 56.4933V51.2653C38.816 50.3379 38.816 48.7356 35.6869 48.7356C34.5876 48.7356 33.7417 48.9887 33.3188 49.0732C32.8116 49.2418 32.642 49.4949 32.642 49.7476V56.4933C32.642 56.7464 32.7268 56.8309 32.8959 56.8309H33.657C33.9108 56.8309 33.9951 56.7464 33.9951 56.4933V50.2538C33.9951 49.9161 34.5871 49.5794 35.6864 49.5794C37.4624 49.5794 37.4624 50.6755 37.4624 51.4339V56.4928C37.4624 56.7459 37.5472 56.8305 37.8006 56.8305H38.6464C38.816 56.7464 38.816 56.6619 38.816 56.4933ZM46.8498 52.8676C46.8498 51.0967 46.343 49.9161 45.4119 49.3263C44.9052 48.9046 44.1436 48.7356 43.4673 48.7356C42.7057 48.7356 42.0294 48.9042 41.4369 49.3263C40.5915 49.9161 39.9995 51.0967 39.9995 52.8676C39.9995 54.722 40.5915 55.9026 41.4369 56.4933C42.0294 56.8309 42.7053 56.9995 43.4673 56.9995C44.1436 56.9995 44.9052 56.8309 45.4119 56.4933C46.343 55.9026 46.8498 54.7225 46.8498 52.8676ZM45.4967 52.8676C45.4967 54.3012 45.159 55.2282 44.7361 55.6504C44.3131 56.0711 43.9755 56.1557 43.4678 56.1557C42.8753 56.1557 42.5376 56.0711 42.1147 55.6504C41.6917 55.2287 41.354 54.3012 41.354 52.8676C41.354 51.4339 41.6917 50.5069 42.1147 50.0847C42.5376 49.7471 42.8753 49.5794 43.4678 49.5794C43.9755 49.5794 44.3131 49.7471 44.7361 50.0847C45.159 50.5069 45.4967 51.4344 45.4967 52.8676ZM52.347 49.4954C52.347 48.9892 51.4168 48.7361 50.3166 48.7361C49.556 48.7361 48.9635 48.9046 48.6258 48.9892C48.1181 49.0737 47.8643 49.3268 47.8643 49.5799V56.5778C47.8643 56.7464 48.0333 56.8309 48.2029 56.8309H48.9635C49.1326 56.8309 49.3021 56.7464 49.3021 56.5778V50.1697C49.3021 49.748 49.556 49.4954 50.0637 49.4954C50.9939 49.4954 51.1629 50.1697 51.6697 50.1697C52.0083 50.1693 52.347 50.0007 52.347 49.4954ZM59.0277 55.9871V46.3749C59.0277 46.1218 58.9429 46.1218 58.7738 46.1218H58.0123C57.7584 46.1218 57.6746 46.2063 57.6746 46.4595V49.1578C57.2517 48.9046 56.7435 48.7361 56.0676 48.7361C53.7001 48.7361 52.4313 51.0127 52.4313 52.868C52.4313 55.6509 53.9534 57 56.3215 57C57.4207 56.9995 59.0277 56.4933 59.0277 55.9871ZM57.6746 55.4818C57.6746 55.9026 57.0821 56.1561 56.3215 56.1561C54.8836 56.1561 53.8691 54.8915 53.8691 52.7835C53.8691 50.9281 54.7993 49.663 56.2367 49.663C56.9973 49.663 57.4207 49.9162 57.6746 50.1693V55.4818ZM62.3254 46.7126C62.3259 46.6127 62.3064 46.5138 62.2683 46.4215C62.2302 46.3291 62.1741 46.2453 62.1033 46.1747C62.0325 46.1041 61.9484 46.0482 61.8558 46.0101C61.7632 45.9721 61.664 45.9528 61.5639 45.9532C61.0571 45.9532 60.7185 46.2909 60.7185 46.7971C60.7185 47.2179 61.0571 47.5555 61.5639 47.5555C62.0716 47.5555 62.4102 47.1333 62.3254 46.7126ZM62.2411 56.4933V49.2423C62.2411 48.9892 62.1563 48.9046 61.9025 48.9046H61.1419C60.888 48.9046 60.888 48.9892 60.888 49.2423V56.4933C60.888 56.7464 60.888 56.8309 61.0571 56.8309H61.9025C62.1563 56.8309 62.2411 56.7464 62.2411 56.4933ZM75.7711 56.6619C75.7711 56.5774 75.6864 56.4933 75.6864 56.4088L72.7273 52.6145C73.7417 51.8561 74.841 50.6755 75.4335 49.4099C75.5173 49.2423 75.5173 49.1578 75.5173 49.0732C75.5173 48.9046 75.4335 48.9046 75.2644 48.9046H74.5871C74.2494 48.9046 74.1651 48.9046 74.0804 49.1578C73.6574 50.4224 72.5582 51.8561 71.3742 52.5304L71.2894 52.6149L71.3742 52.6994L74.0804 56.5783C74.2495 56.8314 74.2494 56.8314 74.5024 56.8314H75.6025C75.603 56.831 75.7711 56.7464 75.7711 56.6619ZM71.1203 56.5778V46.2909C71.1203 46.0378 71.0355 46.0378 70.7817 46.0378H70.0211C69.852 46.0378 69.7672 46.0378 69.7672 46.2909V56.5778C69.7672 56.7464 69.7672 56.8309 70.0211 56.8309H70.7817C71.0355 56.8309 71.1203 56.8309 71.1203 56.5778ZM68.668 54.6379C68.668 52.1092 64.9473 52.5304 64.9473 50.8445C64.9473 50.2538 65.3693 49.663 66.2156 49.663C67.1458 49.663 67.3149 50.2538 67.8226 50.2538C67.9917 50.2538 68.3293 50.0852 68.3293 49.663C68.3293 49.0732 67.3992 48.7356 66.2999 48.7356C64.9468 48.7356 63.6785 49.4949 63.6785 50.9277C63.6785 52.2768 64.6087 52.783 65.7079 53.2883C66.6381 53.626 67.4839 53.9636 67.4839 54.8061C67.4839 55.4813 66.9762 56.1552 65.877 56.1552C64.7778 56.1552 64.5239 55.3968 64.0171 55.3968C63.7633 55.3968 63.4247 55.4813 63.4247 55.9021C63.4247 56.4928 64.6087 56.9991 65.877 56.9991C67.2301 56.9995 68.668 56.3247 68.668 54.6379ZM6.17348 56.4933V51.2653C6.17348 50.3379 6.08871 48.7356 3.04435 48.7356C1.86033 48.7356 1.09925 48.9887 0.676314 49.0732C0.169079 49.2418 0 49.4949 0 49.7476V56.4933C0 56.7464 0.0847747 56.8309 0.253382 56.8309H1.01447C1.26832 56.8309 1.35263 56.7464 1.35263 56.4933V50.2538C1.35263 49.9161 1.94464 49.5794 2.95958 49.5794C4.81991 49.5794 4.81991 50.6755 4.81991 51.4339V56.4928C4.81991 56.7459 4.90469 56.8305 5.15854 56.8305H5.91916C6.08871 56.7464 6.17348 56.6619 6.17348 56.4933ZM14.2073 52.8676C14.2073 51.0967 13.6158 49.9161 12.7699 49.3263C12.1779 48.9046 11.5016 48.7356 10.74 48.7356C10.0637 48.7356 9.30261 48.9042 8.79537 49.3263C7.86474 49.9161 7.35797 51.0967 7.35797 52.8676C7.35797 54.722 7.86521 55.9026 8.79537 56.4933C9.30261 56.8309 10.0637 56.9995 10.74 56.9995C11.5011 56.9995 12.1779 56.8309 12.7699 56.4933C13.6158 55.9026 14.2073 54.7225 14.2073 52.8676ZM12.8542 52.8676C12.8542 54.3012 12.516 55.2282 12.0931 55.6504C11.6702 56.0711 11.332 56.1557 10.7395 56.1557C10.2323 56.1557 9.89415 56.0711 9.47122 55.6504C9.04829 55.2287 8.71013 54.3012 8.71013 52.8676C8.71013 51.4339 9.04829 50.5069 9.47122 50.0847C9.89368 49.7471 10.2323 49.5794 10.7395 49.5794C11.3316 49.5794 11.6697 49.7471 12.0931 50.0847C12.516 50.5069 12.8542 51.4344 12.8542 52.8676ZM28.1607 52.8676C28.1607 51.0967 27.5687 49.9161 26.7229 49.3263C26.1309 48.9046 25.4545 48.7356 24.6935 48.7356C24.0167 48.7356 23.2556 48.9042 22.7484 49.3263C21.8182 49.9161 21.3109 51.0967 21.3109 52.8676C21.3109 54.722 21.8187 55.9026 22.7484 56.4933C23.2561 56.8309 24.0171 56.9995 24.6935 56.9995C25.4545 56.9995 26.1309 56.8309 26.7229 56.4933C27.5687 55.9026 28.1607 54.7225 28.1607 52.8676ZM26.8076 52.8676C26.8076 54.3012 26.4695 55.2282 26.0466 55.6504C25.6236 56.0711 25.2855 56.1557 24.6935 56.1557C24.1858 56.1557 23.8476 56.0711 23.4251 55.6504C23.0027 55.2287 22.664 54.3012 22.664 52.8676C22.664 51.4339 23.0027 50.5069 23.4251 50.0847C23.8476 49.7471 24.1862 49.5794 24.6935 49.5794C25.2855 49.5794 25.6236 49.7471 26.0466 50.0847C26.4695 50.5069 26.8076 51.4344 26.8076 52.8676ZM21.1414 49.0732C21.1414 48.9046 21.0571 48.9046 20.9723 48.9046H20.2112C20.0422 48.9046 20.0422 48.9892 20.0422 49.1578L18.0127 54.891L15.9829 49.1578C15.8981 48.9046 15.8138 48.9046 15.6447 48.9046H14.7145C14.6302 48.9046 14.4607 48.9046 14.4607 49.0732C14.4607 49.1578 14.4607 49.2418 14.5455 49.3263L17.336 56.5774C17.336 56.746 17.4207 56.746 17.5055 56.8305H18.097C18.2666 56.8305 18.3509 56.746 18.4357 56.5774L21.0571 49.3263C21.1414 49.1577 21.1414 49.0732 21.1414 49.0732ZM29.1757 12.31C29.5986 12.0569 29.8525 11.8888 30.0211 11.7197C30.6979 11.1294 30.9517 11.4671 30.2749 12.479C29.4295 13.8282 28.1607 14.7556 26.5543 15.514C26.2161 15.6826 25.7932 15.8512 26.5543 16.1888C27.1458 16.442 28.6684 17.0318 30.0211 17.4535C30.7822 17.7066 36.0255 19.4774 40.9306 19.4774C44.567 19.4774 47.78 18.9717 49.6408 18.8026C50.9939 18.7181 54.0387 18.4654 55.5599 21.1633C56.8282 23.3558 56.491 30.4387 56.5753 32.0405C56.6592 33.1366 56.5753 42.5806 56.5753 43.3395C56.5753 43.9302 56.5753 44.3519 56.1524 44.4355H53.6153C52.939 44.4355 53.0228 44.6886 53.0228 44.8572C53.0228 45.1948 53.1076 45.6165 52.3465 45.6165H49.8094C49.4707 45.6165 49.2169 45.1948 49.5555 44.6041C52.7685 38.7863 52.5156 34.4012 50.6548 31.956C50.5034 32.3952 50.3901 32.8466 50.3161 33.3051C50.0632 34.6543 49.8094 35.245 49.4707 35.4982C46.173 38.1955 44.4813 42.1589 43.7207 44.2674C43.5516 44.6881 43.2977 44.5196 43.1282 44.6881C42.8743 45.0258 43.382 45.6165 42.3676 45.6165H39.6609C39.238 45.6165 38.9841 45.1103 39.4075 44.5196C40.422 43.2549 46.3421 37.7748 46.0035 31.956C46.0035 31.7038 45.8344 30.5228 45.5805 30.2697C45.5805 30.1856 44.5661 29.3422 42.4519 31.1131C42.198 31.2812 42.198 31.2812 41.8594 31.0285C41.5208 30.86 38.9841 29.9325 37.1238 30.5228C35.9398 30.86 34.5024 32.3777 35.0944 34.6543C35.855 37.9433 37.5467 40.7262 38.1383 44.0143C38.223 44.6041 37.7996 44.435 37.631 44.6886C37.3772 45.0263 37.8849 45.617 36.8695 45.617H34.2485C33.8256 45.617 33.4874 45.4484 33.8256 44.4355C33.9099 44.0988 33.9947 43.5926 34.1637 42.5811C34.2485 41.5696 34.1637 40.5566 33.9947 39.3765C33.4026 35.6677 31.2885 33.8118 29.5972 32.7158C28.498 33.4742 26.6372 39.1239 26.0456 42.9187C25.9608 43.5085 25.9608 43.6771 25.9608 43.7616C25.8765 44.7731 25.3688 44.436 25.1998 44.6891C24.9459 45.0267 25.3688 45.6175 24.3544 45.6175H21.902C21.3943 45.6175 21.31 45.1112 21.7325 44.436C23.2546 41.6541 25.707 37.269 25.707 32.6317C25.707 32.1255 25.707 30.5237 24.9459 29.5963C23.2546 27.5728 22.3245 25.2117 21.4786 23.6939C20.8866 22.5979 19.9564 22.3448 19.4487 22.1762C18.8567 22.0076 18.3495 22.2607 17.6727 21.9231C17.5036 21.7545 17.0807 21.1642 16.6578 20.7425C16.3191 20.3213 15.981 19.731 16.4039 19.2248C17.165 18.2973 17.8413 17.6225 17.9261 17.0327C17.9261 16.9482 17.8413 16.611 17.9261 16.4424C18.0952 16.0207 18.7719 15.2619 19.1944 14.6716C19.4483 14.4185 19.2792 13.9972 18.8562 13.491C18.4338 13.0693 17.2498 11.383 17.2498 8.6847C17.2498 7.58867 17.5875 7.67273 17.8413 8.34754C18.1795 9.10593 19.2792 12.31 22.746 13.2379C25.9618 14.0808 28.076 13.1534 29.1757 12.31ZM54.1221 23.1872C54.1221 23.3558 54.2068 24.4523 54.0382 26.3068C53.8691 27.4878 53.6153 28.4152 53.7844 29.3427C53.9534 30.1856 54.4607 33.1366 54.6298 33.3897C54.7988 33.6428 55.1375 33.4742 55.1375 33.222C55.1375 33.0534 55.3904 25.2952 54.7145 23.3563C54.4607 22.7655 54.2068 22.681 54.1221 23.1872ZM25.1164 12.31C28.5832 12.31 31.2894 9.52763 31.2894 6.15499C31.2894 2.69783 28.5832 0 25.1164 0C21.7334 0 18.9429 2.6983 18.9429 6.15499C18.9429 9.52716 21.7334 12.31 25.1164 12.31ZM21.2262 5.39566C21.2262 3.11906 23.0865 1.26415 25.3698 1.26415C27.653 1.26415 29.5134 3.11953 29.5134 5.39566C29.5134 7.67226 27.653 9.52716 25.3698 9.52716C23.0865 9.52716 21.2262 7.67226 21.2262 5.39566ZM18.6891 16.6946C18.6048 16.9472 18.6047 17.7061 18.3509 18.0437C18.1818 18.2123 17.8437 18.7186 17.4207 19.2243C16.913 19.8987 17.336 20.1518 17.928 20.8266C18.4357 21.5009 19.7888 20.8266 21.2257 21.9226C21.9868 22.5129 22.2406 23.0186 23.1708 24.4523C23.509 24.9581 23.6785 24.7054 23.9319 24.0306C24.2705 23.0186 25.5389 20.4049 26.469 18.9717C26.8072 18.55 27.2301 17.9597 26.6381 17.538C26.1309 17.2008 25.0316 16.6951 23.9319 16.0203C21.9025 14.9242 20.8875 14.2494 20.1265 14.8397C19.3658 15.514 18.7743 16.3574 18.6891 16.6946ZM37.4629 23.8616C37.4629 24.789 38.2244 24.9576 38.7317 25.1262C40 25.4634 42.5376 25.3793 44.3127 24.5359C45.6658 23.9456 44.9052 21.585 44.6513 21.0787C44.3974 20.4885 43.8907 20.2358 43.2134 20.3199C42.7905 20.4039 41.6913 20.4039 40.7611 20.4039C40 20.4039 39.408 20.3199 38.1397 20.3199C37.2095 20.2354 37.2943 20.657 37.3786 21.2473C37.5477 22.3443 37.4629 23.5244 37.4629 23.8616ZM48.2029 20.6575C48.8801 21.4164 49.3021 22.681 49.3869 23.2713C49.4717 23.777 50.2332 23.6089 50.3171 23.1027C50.4871 22.3443 50.2332 20.9947 49.6408 20.3203C49.3869 20.0672 48.9635 19.8987 48.4567 19.9827C47.949 20.0672 47.7795 20.2363 48.2029 20.6575ZM45.5815 28.4993C47.6118 28.6679 49.0483 29.3422 50.4023 30.1011C50.8243 30.3542 52.1779 31.3657 52.6856 28.8365C52.8547 28.2467 53.1076 26.897 53.1076 26.3068C53.1924 25.801 53.9539 19.9832 50.8243 19.9832C50.3166 20.0677 50.4023 20.2363 50.4866 20.4049C50.6548 20.658 50.8243 20.9952 50.9086 21.5009C51.2472 22.8505 50.9934 23.6094 50.4866 24.1147C49.9789 24.5364 49.0478 24.6209 48.8797 23.8616C48.2872 21.7536 47.4418 19.8987 45.7501 20.1518C45.4114 20.2363 45.4114 20.4889 45.581 20.9106C45.6658 21.3323 45.9196 22.3443 46.0039 23.1872C46.0887 24.2833 45.581 24.7895 44.8199 25.2112C43.5516 25.9701 40.3372 26.4758 38.0544 25.886C36.7013 25.4643 36.617 24.4528 36.617 24.0311C36.617 23.6099 36.7018 22.1757 36.617 21.7545C36.5322 20.7425 36.4479 20.2368 35.7712 20.1522C34.841 20.0677 35.1796 20.2368 35.0948 21.1637C35.0948 21.1637 35.0948 25.0426 32.2196 24.9581C31.5428 24.9581 31.2046 24.2833 31.2894 23.7775C31.5433 22.6815 31.7119 21.6695 31.7119 20.4889C31.6271 19.646 31.7119 19.3929 29.9358 18.8026C27.9064 18.2123 28.075 18.2123 27.0606 19.7305C26.3838 20.658 25.5384 22.3443 25.1159 23.4403C24.3548 25.6324 25.0311 27.0661 25.6232 27.9935C25.877 28.5838 26.8072 29.4267 27.9069 30.017C30.0206 31.3662 31.7123 32.4627 33.2345 33.6428C33.7422 34.0645 33.9956 34.149 33.9956 33.1366C34.0804 29.8484 37.2938 29.0055 37.632 28.8365C38.9003 28.4152 41.3536 28.1621 45.5815 28.4993ZM32.5582 20.1518C32.7273 21.9226 32.22 23.3558 32.22 23.6089C32.22 24.0302 32.7273 24.1147 33.0659 23.9461C33.7422 23.5244 34.1647 22.3443 34.1647 20.4044C34.1647 19.9827 34.1647 19.8141 33.4036 19.6455C32.6425 19.5615 32.4734 19.5615 32.5582 20.1518ZM19.8731 17.2849C20.4651 18.2969 21.6491 16.6101 21.48 16.2729C21.3953 16.0198 19.2815 16.2729 19.8731 17.2849ZM76.8713 43.7612H77.3781C77.632 43.7612 78.0554 43.7612 78.0554 44.1819C78.0554 44.6036 77.6324 44.6036 77.3781 44.6036H76.8713V43.7612ZM76.4484 46.0373H76.8713V44.9413H77.1243C77.4629 44.9413 77.632 45.0258 77.9706 45.6165L78.1387 46.0373H78.7312L78.3926 45.532C78.0549 45.0258 77.8858 44.9413 77.7163 44.8567C78.3078 44.8567 78.4769 44.435 78.4769 44.0983C78.4769 43.9297 78.3921 43.7607 78.223 43.5921C78.0549 43.4235 77.7163 43.4235 77.3776 43.4235H76.4475V46.0373H76.4484ZM77.5477 42.243C76.1946 42.243 75.0953 43.339 75.0953 44.6881C75.0953 46.0373 76.1946 47.1333 77.5477 47.1333C78.9007 47.1333 80 46.0373 80 44.6881C80 43.339 78.9007 42.243 77.5477 42.243ZM77.5477 42.6651C78.6469 42.6651 79.5771 43.5926 79.5771 44.6886C79.5771 45.7846 78.6469 46.713 77.5477 46.713C76.4484 46.713 75.5173 45.7846 75.5173 44.6886C75.5173 43.5926 76.4484 42.6651 77.5477 42.6651Z" fill="white"/>
</svg>
