<svg width="112" height="30" viewBox="0 0 112 30" fill="none" xmlns="http://www.w3.org/2000/svg">
<g opacity="0.4" filter="url(#filter0_d_5_265)">
<path d="M102.483 19.1206C102.483 17.5652 103.718 16.3032 105.239 16.3032C106.761 16.3032 107.994 17.5652 107.994 19.1206C107.994 20.6761 106.761 21.9372 105.239 21.9372C103.718 21.9372 102.483 20.6761 102.483 19.1206Z" fill="white"/>
<path d="M14.5842 11.6593C14.5842 9.87478 14.2469 8.55086 13.5722 7.68836C12.8967 6.82667 11.8734 6.39622 10.4978 6.39622H9.03439V17.3088H10.154C11.682 17.3088 12.8018 16.8457 13.5147 15.9164C14.2269 14.9887 14.5842 13.5694 14.5842 11.6593M19.803 11.4734C19.803 14.7245 18.948 17.2297 17.2382 18.9881C15.5284 20.7474 13.1248 21.627 10.0264 21.627H4.0061V2.14569H10.4467C13.4341 2.14569 15.7405 2.94542 17.3658 4.54406C18.9903 6.14353 19.803 8.45223 19.803 11.4734" fill="white"/>
<path d="M36.4792 21.6268H41.2698V2.06396H36.4792V21.6268Z" fill="white"/>
<path d="M47.9998 14.3298C47.9998 15.5771 48.1592 16.5284 48.4775 17.1822C48.7965 17.8368 49.3307 18.1638 50.082 18.1638C50.8252 18.1638 51.3508 17.8368 51.657 17.1822C51.9633 16.5284 52.1156 15.5771 52.1156 14.3298C52.1156 13.089 51.9608 12.1531 51.6506 11.5213C51.3396 10.8879 50.8094 10.5708 50.0574 10.5708C49.3221 10.5708 48.7965 10.8863 48.4775 11.514C48.1592 12.1425 47.9998 13.0809 47.9998 14.3298ZM56.9915 14.3298C56.9915 16.7062 56.3822 18.56 55.1604 19.8888C53.9395 21.2184 52.2304 21.8836 50.0334 21.8836C47.9264 21.8836 46.2492 21.2037 45.0043 19.8439C43.7578 18.4841 43.135 16.6466 43.135 14.3298C43.135 11.9608 43.7452 10.12 44.9669 8.80746C46.1886 7.49496 47.9016 6.83871 50.1075 6.83871C51.4705 6.83871 52.6763 7.14281 53.721 7.75015C54.7665 8.35749 55.5736 9.22733 56.1406 10.3605C56.7084 11.492 56.9915 12.8159 56.9915 14.3298Z" fill="white"/>
<path d="M58.8938 21.6268H63.6852V14.1399V7.09552H58.8938V21.6268Z" fill="white"/>
<path d="M58.8938 5.33782H63.6852V2.06308H58.8938V5.33782Z" fill="white"/>
<path d="M73.3921 17.9205C74.0389 17.9205 74.8092 17.7525 75.708 17.4191V21.0753C75.062 21.3656 74.448 21.5734 73.8642 21.6965C73.2805 21.8213 72.5954 21.8832 71.8114 21.8832C70.2029 21.8832 69.0433 21.4699 68.3311 20.6449C67.6222 19.8199 67.2665 18.5531 67.2665 16.8436V10.8533H65.5886V7.09677H67.2665V3.38589L72.0946 2.52744V7.09677H75.1514V10.8533H72.0946V16.5093C72.0946 17.4501 72.5276 17.9205 73.3921 17.9205" fill="white"/>
<path d="M84.4813 17.9205C85.1281 17.9205 85.8985 17.7525 86.7973 17.4191V21.0753C86.1521 21.3656 85.5372 21.5734 84.9534 21.6965C84.3689 21.8213 83.6862 21.8832 82.9006 21.8832C81.2921 21.8832 80.1326 21.4699 79.422 20.6449C78.7114 19.8199 78.3558 18.5531 78.3558 16.8436V10.8533H76.677V7.09677H78.3558V3.32964L83.183 2.52744V7.09677H86.2414V10.8533H83.183V16.5093C83.183 17.4501 83.616 17.9205 84.4813 17.9205" fill="white"/>
<path d="M92.8429 12.5594C92.9083 11.7638 93.1309 11.1809 93.5105 10.8084C93.8918 10.4366 94.3622 10.2508 94.9253 10.2508C95.5393 10.2508 96.0274 10.4594 96.3894 10.8801C96.7538 11.2983 96.9437 11.8584 96.9589 12.5594H92.8429V12.5594ZM99.5994 8.55185C98.4605 7.41054 96.8448 6.83905 94.7546 6.83905C92.5574 6.83905 90.8668 7.4953 89.6817 8.8078C88.4974 10.1203 87.9048 12.0035 87.9048 14.4573C87.9048 16.8337 88.5452 18.6663 89.8228 19.9527C91.1012 21.2391 92.8963 21.8831 95.2083 21.8831C96.3184 21.8831 97.2739 21.8057 98.0746 21.6516C98.8705 21.4992 99.6408 21.2236 100.388 20.8258L99.652 17.551C99.1089 17.7777 98.5921 17.9521 98.104 18.0671C97.3991 18.2342 96.6256 18.3182 95.7834 18.3182C94.8599 18.3182 94.1309 18.0875 93.5966 17.626C93.0623 17.1638 92.7776 16.5263 92.7449 15.7144H101.308V13.4831C101.308 11.3366 100.739 9.69234 99.5994 8.55185Z" fill="white"/>
<path d="M26.1612 12.5594C26.2266 11.7638 26.4491 11.1809 26.8287 10.8084C27.2091 10.4366 27.6805 10.2508 28.2444 10.2508C28.8569 10.2508 29.3449 10.4594 29.7078 10.8801C30.0722 11.2983 30.2612 11.8584 30.278 12.5594H26.1612V12.5594ZM32.9185 8.55185C31.7789 7.41054 30.1639 6.83905 28.0729 6.83905C25.8749 6.83905 24.185 7.4953 23.0007 8.8078C21.8164 10.1203 21.2231 12.0035 21.2231 14.4573C21.2231 16.8337 21.8628 18.6663 23.142 19.9527C24.4196 21.2391 26.2147 21.8831 28.5266 21.8831C29.6368 21.8831 30.5921 21.8057 31.3928 21.6516C32.1887 21.4992 32.9592 21.2236 33.7073 20.8258L32.9704 17.551C32.4272 17.7777 31.9104 17.9521 31.4232 18.0671C30.7166 18.2342 29.9438 18.3182 29.1016 18.3182C28.1789 18.3182 27.4493 18.0875 26.915 17.626C26.3798 17.1638 26.0959 16.5263 26.0633 15.7144H34.6267V13.4831C34.6267 11.3366 34.0573 9.69234 32.9185 8.55185" fill="white"/>
</g>
<defs>
<filter id="filter0_d_5_265" x="-2" y="0" width="116" height="32" filterUnits="userSpaceOnUse" color-interpolation-filters="sRGB">
<feFlood flood-opacity="0" result="BackgroundImageFix"/>
<feColorMatrix in="SourceAlpha" type="matrix" values="0 0 0 0 0 0 0 0 0 0 0 0 0 0 0 0 0 0 127 0" result="hardAlpha"/>
<feOffset dy="4"/>
<feGaussianBlur stdDeviation="2"/>
<feComposite in2="hardAlpha" operator="out"/>
<feColorMatrix type="matrix" values="0 0 0 0 0 0 0 0 0 0 0 0 0 0 0 0 0 0 0.25 0"/>
<feBlend mode="normal" in2="BackgroundImageFix" result="effect1_dropShadow_5_265"/>
<feBlend mode="normal" in="SourceGraphic" in2="effect1_dropShadow_5_265" result="shape"/>
</filter>
</defs>
</svg>
