<svg width="77" height="50" viewBox="0 0 77 50" fill="none" xmlns="http://www.w3.org/2000/svg">
<g opacity="0.4" clip-path="url(#clip0_2_709)">
<path d="M76.2236 35.4469V29.3876H64.1884L52.3044 35.4158L76.2236 35.4469Z" fill="white"/>
<path d="M5.46333 46.2175L6.6743 43.9361C6.72019 43.8499 6.81148 43.6645 6.81148 43.5965C6.81148 43.4923 6.72019 43.4797 6.47652 43.4485C6.41539 43.4421 6.36172 43.4299 6.36172 43.3562C6.36172 43.2763 6.46874 43.2763 6.55271 43.2763C6.644 43.2763 6.9179 43.3012 7.12404 43.3012C7.39065 43.3012 7.57323 43.2763 7.64214 43.2763C7.67961 43.2763 7.77885 43.2763 7.77885 43.3624C7.77885 43.4429 7.68756 43.4486 7.48928 43.4674C7.32181 43.4855 7.22265 43.4923 6.95661 44.0036L5.32611 47.112C5.288 47.1981 5.25784 47.2351 5.19672 47.2351C5.12781 47.2351 5.0824 47.2044 5.0214 47.0747L4.21428 45.4961L3.29232 47.0566C3.20833 47.2046 3.17085 47.2352 3.10973 47.2352C3.03352 47.2352 2.98763 47.1739 2.93441 47.0809L1.12133 43.8251C0.953854 43.5167 0.862542 43.4856 0.7102 43.4674C0.458704 43.4367 0.428467 43.4367 0.428467 43.3625C0.428467 43.2764 0.542777 43.2764 0.595934 43.2764C0.740417 43.2764 1.05299 43.3013 1.3504 43.3013C1.69264 43.3013 2.08863 43.2764 2.14969 43.2764C2.23368 43.2764 2.34013 43.2764 2.34013 43.3625C2.34013 43.443 2.24106 43.4549 2.11161 43.4549C2.0735 43.4613 1.93685 43.4677 1.93685 43.5479C1.93685 43.6217 1.99734 43.7265 2.01242 43.7508L3.42167 46.267L4.01594 45.3362C4.03896 45.2988 4.04674 45.2806 4.04674 45.262C4.04674 45.2371 4.03086 45.2001 4.00864 45.1633L3.26928 43.8432C3.10965 43.5598 3.04076 43.4856 2.91136 43.4674C2.70581 43.443 2.62964 43.4367 2.62964 43.3625C2.62964 43.2764 2.72871 43.2764 2.78982 43.2764C2.90414 43.2764 3.46755 43.3013 3.59694 43.3013C3.70332 43.3013 4.22148 43.2764 4.33575 43.2764C4.35877 43.2764 4.45784 43.2764 4.45784 43.3562C4.45784 43.4486 4.25956 43.4549 4.18338 43.4549C4.07701 43.4613 4.0159 43.4798 4.0159 43.5291C4.0159 43.5596 4.05402 43.6708 4.09212 43.7445L4.54133 44.5403L4.9911 43.7757C5.02127 43.714 5.07462 43.6216 5.07462 43.5722C5.07462 43.498 4.99111 43.461 4.8237 43.4368C4.74701 43.4303 4.70161 43.4119 4.70161 43.35C4.70161 43.2825 4.76273 43.2762 4.831 43.2762C4.92229 43.2762 5.24997 43.3011 5.45553 43.3011C5.63085 43.3011 5.80616 43.2762 5.87449 43.2762C5.95071 43.2762 6.04981 43.2762 6.04981 43.3623C6.04981 43.4298 5.95852 43.4547 5.77536 43.4673C5.54682 43.4737 5.48578 43.5041 5.2427 43.8924L4.73186 44.7007C4.70948 44.7314 4.70948 44.7626 4.70948 44.7805C4.70948 44.8055 4.73187 44.8424 4.76997 44.9166L5.46333 46.2175Z" fill="white"/>
<path d="M14.299 43.3997C13.2326 43.3997 12.6764 44.1949 12.6764 45.0706C12.6764 46.0699 13.4006 47.0194 14.4284 47.0194C15.4949 47.0194 16.0511 46.0637 16.0511 45.1693C16.0511 44.4358 15.51 43.3997 14.299 43.3997ZM14.3673 47.1798C13.0348 47.1798 11.7622 46.3783 11.7622 45.2004C11.7622 44.0906 12.9127 43.2392 14.3903 43.2392C15.8146 43.2392 16.9651 44.0838 16.9651 45.1449C16.9651 46.3409 15.6623 47.1798 14.3673 47.1798Z" fill="white"/>
<path d="M22.678 44.8734C22.678 45.0893 22.678 45.1018 23.0589 45.1018C23.3334 45.1018 24.0873 45.1018 24.0873 44.3309C24.0873 44.1087 23.9809 43.4489 23.0359 43.4489C22.6859 43.4489 22.678 43.5969 22.678 43.8378V44.8734ZM21.8631 43.899C21.8631 43.6462 21.8631 43.4795 21.4895 43.4614C21.322 43.455 21.2156 43.4486 21.2156 43.3623C21.2156 43.2762 21.2458 43.2762 21.4973 43.2762C21.5735 43.2762 21.9471 43.3011 22.0384 43.3011C22.244 43.3011 23.2566 43.2762 23.4852 43.2762C24.8339 43.2762 24.9482 44.0289 24.9482 44.2443C24.9482 44.9659 24.1635 45.1138 23.9041 45.1574C24.0032 45.2068 24.0946 45.2436 24.2699 45.5026L25.0087 46.5632C25.1609 46.7791 25.268 46.9333 25.4808 46.9577C25.7323 46.9826 25.7934 46.9888 25.7934 47.0688C25.7934 47.1368 25.7172 47.1431 25.664 47.1431C25.5649 47.1431 25.0697 47.1182 24.9554 47.1182C24.8943 47.1182 24.6126 47.1431 24.5443 47.1431C24.4071 47.1431 24.3768 47.0875 24.2928 46.9577L23.3714 45.552C23.2034 45.2867 23.1653 45.2624 22.8225 45.2624C22.6931 45.2624 22.678 45.2992 22.678 45.4041V46.5139C22.678 46.7729 22.678 46.9396 23.0589 46.9577C23.2264 46.9642 23.3334 46.9706 23.3334 47.0627C23.3334 47.1488 23.2343 47.1431 23.1732 47.1431C23.0281 47.1431 22.2893 47.1182 22.2591 47.1182C22.1297 47.1182 21.5125 47.1431 21.3752 47.1431C21.3147 47.1431 21.2156 47.1496 21.2156 47.0564C21.2156 46.9703 21.3299 46.964 21.4895 46.9577C21.8631 46.9333 21.8631 46.7729 21.8631 46.5139L21.8631 43.899Z" fill="white"/>
<path d="M30.3408 43.9053C30.3408 43.6525 30.3408 43.4858 29.9521 43.4677C29.7924 43.4613 29.6854 43.4548 29.6854 43.3623C29.6854 43.2762 29.7845 43.2762 29.8456 43.2762C29.975 43.2762 30.3789 43.3011 30.7749 43.3011C31.2549 43.3011 31.5215 43.2762 31.666 43.2762C31.7271 43.2762 31.8262 43.2762 31.8262 43.3623C31.8262 43.4552 31.7119 43.4614 31.5596 43.4677C31.1709 43.4858 31.1557 43.6524 31.1557 43.8865V46.3471C31.1557 46.7354 31.2929 46.9451 31.7651 46.9451C32.1309 46.9451 32.6714 46.8839 33.0831 46.2672C33.1133 46.2174 33.1442 46.1929 33.1895 46.1929C33.2657 46.1929 33.2885 46.2423 33.2885 46.2916C33.2885 46.3409 33.1895 46.8896 33.1822 46.9945C33.1663 47.1118 33.1283 47.1429 32.9912 47.1429C32.9229 47.1429 32.9307 47.118 31.2016 47.118C29.9139 47.118 29.9139 47.1429 29.8377 47.1429C29.7845 47.1429 29.6853 47.1429 29.6853 47.0562C29.6853 46.9701 29.8001 46.9638 29.9519 46.9513C30.3406 46.9331 30.3406 46.7664 30.3406 46.5074L30.3408 43.9053Z" fill="white"/>
<path d="M38.7423 46.3782C38.7423 46.7727 38.8717 46.9887 39.4581 46.9887C40.4713 46.9887 41.3703 46.2303 41.3703 45.2434C41.3703 44.5406 40.8601 43.437 39.2453 43.437C38.7882 43.437 38.7423 43.5849 38.7423 43.9301V46.3782ZM37.9273 43.8933C37.9273 43.6405 37.836 43.5537 37.6837 43.5537C37.6378 43.5537 37.4171 43.6031 37.3638 43.6031C37.2949 43.6031 37.2568 43.5849 37.2568 43.5351C37.2568 43.3628 38.5289 43.2766 39.2374 43.2766C40.2198 43.2766 40.7682 43.3995 41.256 43.6711C41.8806 44.0163 42.2687 44.6087 42.2687 45.2067C42.2687 45.8664 41.7052 47.1429 39.7174 47.1429C39.4962 47.1429 38.5137 47.118 38.3233 47.118C38.1861 47.118 37.4624 47.1429 37.4249 47.1429C37.371 47.1429 37.272 47.1429 37.272 47.0568C37.272 46.9638 37.3863 46.9581 37.5386 46.9519C37.9273 46.9332 37.9273 46.7665 37.9273 46.5137L37.9273 43.8933Z" fill="white"/>
<path d="M51.2954 46.2175L52.5069 43.9361C52.5523 43.8499 52.6436 43.6645 52.6436 43.5965C52.6436 43.4923 52.5523 43.4797 52.3087 43.4485C52.2475 43.4421 52.1943 43.4299 52.1943 43.3562C52.1943 43.2763 52.3007 43.2763 52.3848 43.2763C52.4761 43.2763 52.75 43.3012 52.9561 43.3012C53.2227 43.3012 53.4053 43.2763 53.4742 43.2763C53.5123 43.2763 53.6109 43.2763 53.6109 43.3624C53.6109 43.4429 53.5196 43.4486 53.3213 43.4674C53.1539 43.4855 53.0553 43.4923 52.7887 44.0036L51.1582 47.112C51.1201 47.1981 51.0899 47.2351 51.0288 47.2351C50.9605 47.2351 50.9145 47.2044 50.8535 47.0747L50.0463 45.4961L49.1244 47.0566C49.0409 47.2046 49.0029 47.2352 48.9418 47.2352C48.8656 47.2352 48.8197 47.1739 48.7665 47.0809L46.9534 43.8251C46.7859 43.5167 46.6946 43.4856 46.5422 43.4674C46.2907 43.4367 46.2605 43.4367 46.2605 43.3625C46.2605 43.2764 46.3748 43.2764 46.428 43.2764C46.5731 43.2764 46.885 43.3013 47.1819 43.3013C47.5247 43.3013 47.9207 43.2764 47.9817 43.2764C48.0657 43.2764 48.1722 43.2764 48.1722 43.3625C48.1722 43.443 48.0731 43.4549 47.9437 43.4549C47.9055 43.4613 47.7689 43.4677 47.7689 43.5479C47.7689 43.6217 47.8294 43.7265 47.8451 43.7508L49.2538 46.267L49.8481 45.3362C49.8711 45.2988 49.8789 45.2806 49.8789 45.262C49.8789 45.2371 49.863 45.2001 49.8408 45.1634L49.102 43.8432C48.9418 43.5598 48.8734 43.4856 48.7441 43.4674C48.5379 43.443 48.4618 43.4367 48.4618 43.3625C48.4618 43.2764 48.5608 43.2764 48.6219 43.2764C48.7363 43.2764 49.2997 43.3013 49.4291 43.3013C49.5354 43.3013 50.0536 43.2764 50.1684 43.2764C50.1908 43.2764 50.2899 43.2764 50.2899 43.3562C50.2899 43.4486 50.0916 43.4549 50.0154 43.4549C49.909 43.4613 49.8479 43.4798 49.8479 43.5291C49.8479 43.5596 49.8861 43.6708 49.9242 43.7445L50.3739 44.5403L50.8231 43.7757C50.8533 43.714 50.9067 43.6216 50.9067 43.5722C50.9067 43.498 50.8231 43.461 50.6557 43.4368C50.5795 43.4303 50.5336 43.4119 50.5336 43.35C50.5336 43.2825 50.5948 43.2762 50.663 43.2762C50.755 43.2762 51.082 43.3011 51.2876 43.3011C51.4629 43.3011 51.6382 43.2762 51.7065 43.2762C51.7827 43.2762 51.8819 43.2762 51.8819 43.3623C51.8819 43.4298 51.7906 43.4547 51.608 43.4673C51.3794 43.4737 51.3184 43.5041 51.0747 43.8924L50.5645 44.7007C50.5415 44.7314 50.5415 44.7626 50.5415 44.7805C50.5415 44.8055 50.5645 44.8424 50.6019 44.9166L51.2954 46.2175Z" fill="white"/>
<path d="M58.943 46.5074C58.943 46.7664 58.943 46.933 59.3238 46.9517C59.4913 46.9582 59.5983 46.963 59.5983 47.0567C59.5983 47.1428 59.4992 47.1428 59.4381 47.1428C59.2779 47.1428 59.027 47.1179 58.524 47.1179C58.0899 47.1179 57.709 47.1428 57.6329 47.1428C57.5717 47.1428 57.4727 47.1428 57.4727 47.0504C57.4727 46.9636 57.587 46.9575 57.7471 46.9517C58.128 46.9268 58.128 46.7664 58.128 46.5136V43.9113C58.128 43.6523 58.128 43.4919 57.7471 43.4675C57.5797 43.4611 57.4727 43.4546 57.4727 43.3626C57.4727 43.2758 57.5717 43.2758 57.6329 43.2758C57.7925 43.2758 58.067 43.3007 58.5313 43.3007C59.0802 43.3007 59.3238 43.2758 59.4381 43.2758C59.4992 43.2758 59.5983 43.2758 59.5983 43.3688C59.5983 43.4549 59.4835 43.4612 59.3238 43.4675C58.943 43.4919 58.943 43.6523 58.943 43.8926V46.5074Z" fill="white"/>
<path d="M65.2118 46.3782C65.2118 46.7727 65.3412 46.9887 65.9276 46.9887C66.9408 46.9887 67.8398 46.2303 67.8398 45.2434C67.8398 44.5406 67.3296 43.437 65.7147 43.437C65.2577 43.437 65.2118 43.5849 65.2118 43.9301V46.3782ZM64.3968 43.8933C64.3968 43.6405 64.3055 43.5537 64.1532 43.5537C64.1073 43.5537 63.8865 43.6031 63.8333 43.6031C63.7644 43.6031 63.7263 43.5849 63.7263 43.5351C63.7263 43.3628 64.9983 43.2766 65.7069 43.2766C66.6893 43.2766 67.2377 43.3995 67.7255 43.6711C68.35 44.0163 68.7382 44.6087 68.7382 45.2067C68.7382 45.8664 68.1747 47.1429 66.1869 47.1429C65.9656 47.1429 64.9832 47.118 64.7928 47.118C64.6556 47.118 63.9319 47.1429 63.8938 47.1429C63.8406 47.1429 63.7415 47.1429 63.7415 47.0568C63.7415 46.9638 63.8558 46.9581 64.0081 46.9519C64.3968 46.9332 64.3968 46.7665 64.3968 46.5137L64.3968 43.8933Z" fill="white"/>
<path d="M73.7198 43.9053C73.7198 43.6525 73.7198 43.4858 73.3389 43.4677C73.1714 43.4613 73.0645 43.4548 73.0645 43.3623C73.0645 43.2762 73.1635 43.2762 73.2169 43.2762C73.2328 43.2762 73.2399 43.2826 73.4073 43.289C73.5754 43.2954 73.9025 43.3019 74.5505 43.3019H74.9157C75.7004 43.3019 76.0891 43.2954 76.2942 43.289C76.4924 43.2826 76.5003 43.2762 76.5227 43.2762C76.6146 43.2762 76.6146 43.3255 76.6146 43.4678V44.0346C76.6146 44.0657 76.6146 44.1395 76.5384 44.1395C76.4544 44.1395 76.4393 44.1151 76.302 43.8867C76.2107 43.7263 76.0281 43.4922 74.946 43.4922C74.5657 43.4922 74.5349 43.5352 74.5349 43.8436V44.7375C74.5349 44.9353 74.5349 44.9846 74.9768 44.9846C75.822 44.9846 75.8909 44.8485 76.0281 44.5221C76.0662 44.4422 76.1037 44.4297 76.1418 44.4297C76.1877 44.4297 76.2258 44.4478 76.2258 44.5158C76.2258 44.6019 76.1726 45.2374 76.1726 45.3728C76.1726 45.4165 76.1956 45.6319 76.1956 45.6812C76.1956 45.718 76.1956 45.8043 76.1037 45.8043C76.0432 45.8043 75.9973 45.7737 75.9592 45.6563C75.7996 45.1819 75.5862 45.1756 74.9617 45.1756C74.5959 45.1756 74.5348 45.1756 74.5348 45.361V46.4209C74.5348 46.8591 74.6951 46.9271 75.3347 46.9271C75.6702 46.9271 76.1418 46.9271 76.4773 46.4028C76.6145 46.1868 76.6297 46.1624 76.698 46.1624C76.7669 46.1624 76.7898 46.2174 76.7898 46.2548C76.7898 46.3353 76.7058 46.7298 76.6828 46.9577C76.6748 47.075 76.5993 47.1431 76.3781 47.1431C75.9899 47.1431 75.4567 47.1366 75.0147 47.1302C74.5807 47.1238 74.2227 47.1174 74.1768 47.1174H74.0855C73.773 47.1174 73.5826 47.1238 73.461 47.1302C73.3389 47.1366 73.2784 47.1431 73.2246 47.1431C73.1635 47.1431 73.0645 47.1431 73.0645 47.05C73.0645 46.9639 73.1792 46.9576 73.3389 46.9451C73.7198 46.9269 73.7198 46.7603 73.7198 46.5075L73.7198 43.9053Z" fill="white"/>
<path d="M76.1592 40.5006H0.26709V40.2801H76.1592V40.5006Z" fill="white"/>
<path d="M0.276855 35.442V29.3827H12.3126L24.196 35.4102L0.276855 35.442Z" fill="white"/>
<path d="M76.1804 49.7874H0.28833V49.567H76.1804V49.7874Z" fill="white"/>
<path d="M74.1999 24.0983H74.4233C74.6787 24.0983 74.895 24.0048 74.895 23.7628C74.895 23.5904 74.7711 23.4181 74.4233 23.4181C74.3232 23.4181 74.2536 23.4262 74.1999 23.4342V24.0983ZM74.1999 25.1849H73.8907V23.2232C74.0525 23.1994 74.2077 23.1761 74.4396 23.1761C74.7325 23.1761 74.9258 23.2384 75.0417 23.3245C75.1571 23.4107 75.2193 23.5433 75.2193 23.7309C75.2193 23.9888 75.049 24.1453 74.8406 24.2082V24.2243C75.0109 24.2554 75.1263 24.4119 75.1655 24.701C75.2114 25.0054 75.2573 25.1233 75.2887 25.1856H74.9638C74.9179 25.1233 74.8719 24.9436 74.8327 24.6857C74.7868 24.4351 74.663 24.341 74.416 24.341H74.1998L74.1999 25.1849ZM74.5242 22.6762C73.7596 22.6762 73.1339 23.3405 73.1339 24.1607C73.1339 24.9973 73.7596 25.6537 74.5314 25.6537C75.3044 25.6617 75.9222 24.9973 75.9222 24.1686C75.9222 23.3405 75.3044 22.6762 74.5314 22.6762H74.5242ZM74.5321 22.4024C75.4821 22.4024 76.2393 23.184 76.2393 24.1607C76.2393 25.1537 75.4821 25.9274 74.5248 25.9274C73.5749 25.9274 72.8025 25.1537 72.8025 24.1607C72.8025 23.184 73.5749 22.4024 74.5248 22.4024H74.5321Z" fill="white"/>
<path d="M30.6189 24.4713L30.4458 24.4888C30.3736 24.5409 30.3399 24.6702 30.345 24.7966C30.3813 24.795 30.4168 24.7918 30.4525 24.7902C30.5522 24.7534 30.6047 24.6162 30.6188 24.4711" fill="white"/>
<path d="M61.7546 25.2268C60.3107 25.2268 59.806 24.4219 59.806 23.3149V19.5762C59.806 19.2236 59.7887 19.1902 59.4756 19.1902H58.9362C58.7446 19.1227 58.6925 18.7877 58.832 18.6698C59.3708 18.4856 59.8581 18.1835 60.276 17.9154C60.5891 17.6971 61.0243 17.3457 61.5637 16.6077C61.6858 16.5409 61.9989 16.5572 62.0857 16.6911V17.9494C62.0857 18.268 62.103 18.285 62.4156 18.285H63.9643C64.0512 18.3514 64.1032 18.4522 64.1032 18.603C64.1032 18.7878 64.0512 19.0899 63.8775 19.1902H62.3114C62.0857 19.1902 62.0678 19.2073 62.0678 19.5762V22.0906C62.0678 23.0298 62.0678 24.0694 63.286 24.0694C63.5291 24.0694 63.8075 23.9521 64.0164 23.8183C64.1906 23.8681 64.2948 24.053 64.2601 24.2542C63.7728 24.7575 62.8335 25.2268 61.7547 25.2268L61.7546 25.2268ZM55.9855 25.2268C53.6358 25.2268 52.3661 23.6335 52.3661 21.8061C52.3661 19.693 53.9489 18.0498 56.1244 18.0498C57.9336 18.0498 58.9082 19.1732 58.9082 20.4644C58.9082 20.783 58.8208 21.0176 58.2814 21.0176H54.9409C54.541 21.0176 54.5062 21.0517 54.5062 21.3197C54.5062 22.577 55.3414 23.8019 56.959 23.8019C57.4468 23.8019 58.1072 23.701 58.5777 22.9295C58.7687 22.8955 59.0297 23.0298 59.0297 23.315C58.3161 24.7405 57.029 25.2268 55.9855 25.2268V25.2268ZM52.603 25.0421C52.0641 25.0091 51.3332 24.9922 50.4981 24.9922C49.8024 24.9922 49.1235 25.0093 48.6189 25.0421C48.462 24.9418 48.462 24.5557 48.601 24.4554L48.9146 24.405C49.3151 24.3545 49.3845 24.2202 49.3845 23.2985V20.4644C49.3845 19.8103 49.0367 19.2741 48.1663 19.2741C47.679 19.2741 47.3317 19.4918 47.1922 19.6766C47.0881 19.7934 47.0533 19.9951 47.0533 20.2967V23.2985C47.0533 24.2202 47.1227 24.3545 47.558 24.422L47.8364 24.4554C47.9753 24.5557 47.9753 24.9417 47.8184 25.042C47.2796 25.0091 46.7223 24.9922 45.8877 24.9922C45.1568 24.9922 44.4426 25.0093 43.8343 25.042C43.6775 24.9418 43.6775 24.5557 43.8164 24.4554L44.0953 24.422C44.7215 24.3545 44.791 24.2202 44.791 23.0463V20.5149C44.791 19.8438 44.791 19.6595 44.4605 19.4413L44.2169 19.2906C44.0953 19.1903 44.0953 18.8887 44.2169 18.7878C45.0346 18.5696 46.2876 18.1167 46.7917 17.8152C46.9317 17.8152 47.0354 17.865 47.1059 17.9659C47.1059 18.2006 47.0532 18.603 47.0532 18.7209C47.0532 18.8207 47.088 18.8546 47.1401 18.8546C47.1922 18.8546 47.3664 18.7712 47.4705 18.7209C47.8531 18.5021 48.6709 18.0498 49.4713 18.0498C50.9158 18.0498 51.6468 19.0054 51.6468 20.1623V23.0463C51.6468 24.2202 51.7161 24.3545 52.3424 24.422L52.6208 24.4554C52.7597 24.5557 52.7597 24.9417 52.6028 25.042L52.603 25.0421ZM40.0977 25.2268C38.027 25.2268 36.2005 24.0864 36.2005 21.7721C36.1663 19.3744 38.1486 18.0498 40.2019 18.0498C42.2559 18.0498 44.0992 19.2576 44.0992 21.6213C44.0992 24.0694 42.2379 25.2268 40.0977 25.2268ZM35.3525 20.1294C35.1088 20.1294 34.8999 20.0285 34.6742 19.8273C34.2737 19.5082 34.1174 19.4917 34.0127 19.4917C33.769 19.4917 33.6822 19.8607 33.6822 20.4979V23.0803C33.6822 24.2542 33.7517 24.3879 34.3258 24.4384L34.8831 24.4888C35.022 24.5897 35.022 24.9746 34.8658 25.0761C34.0301 25.042 33.3339 25.0256 32.5161 25.0256C31.8031 25.0256 31.0374 25.042 30.4633 25.0761C30.3882 25.0274 30.3501 24.9134 30.3452 24.7966C28.6872 24.8816 27.2853 25.3946 27.2343 25.3946C27.1122 25.3776 27.0422 25.2937 27.0254 25.1934C27.0602 24.9922 27.0775 24.7235 27.0775 24.5898C27.0775 24.4889 26.9906 24.422 26.8865 24.422C26.2076 24.8409 25.5982 25.2268 24.52 25.2268C23.0754 25.2268 22.4839 24.5059 22.4839 23.0803V20.2298C22.4839 19.341 22.3798 19.2741 21.9625 19.1398L21.7362 19.0729C21.6141 18.9216 21.6321 18.603 21.8051 18.4857C22.3798 18.4693 22.9886 18.4189 23.4933 18.335C24.0153 18.2511 24.52 18.0499 24.5894 18.0499C24.6942 18.0499 24.7804 18.1671 24.7978 18.2511C24.7637 18.67 24.7462 19.1229 24.7462 19.7271V22.4932C24.7462 23.2986 24.8678 24.0032 25.9813 24.0032C26.4686 24.0032 26.7469 23.7849 26.8864 23.6841C27.0079 23.6002 27.0774 23.3485 27.0774 23.1807V20.0116C27.0774 19.3411 26.9558 19.1903 26.3297 19.1064L26.0854 19.073C25.9465 18.9557 25.9638 18.5532 26.1728 18.4858C26.799 18.4523 27.4252 18.3855 27.9819 18.3186C28.5908 18.234 29.1128 18.0499 29.2176 18.0499C29.2865 18.0499 29.3744 18.1338 29.3912 18.2511C29.3744 18.5532 29.3391 19.1065 29.3391 19.7271V22.7789C29.3391 23.768 29.3912 24.2039 29.809 24.2039C30.0353 24.2039 30.2958 24.1375 30.5053 24.0696C30.5926 24.0888 30.6369 24.2866 30.619 24.4714L30.7769 24.4554C31.3511 24.3879 31.42 24.2541 31.42 23.0803V20.5482C31.42 19.8777 31.42 19.6929 31.0895 19.4747L30.8464 19.324C30.7243 19.2237 30.7243 18.9216 30.8464 18.8207C31.6468 18.603 32.8471 18.1501 33.3865 17.8151C33.5254 17.8151 33.6302 17.8649 33.6996 17.9658C33.6644 18.3008 33.6302 18.5361 33.6302 18.6868C33.6302 18.8041 33.6644 18.8546 33.8039 18.8886C34.2738 18.6029 34.7779 18.0497 35.5094 18.0497C35.9788 18.0497 36.4661 18.4017 36.4661 19.0394C36.4661 19.8103 35.9094 20.1294 35.3526 20.1294L35.3525 20.1294ZM21.5592 25.042C20.6367 25.0091 18.967 24.9922 17.5399 24.9922H15.2787C14.443 24.9922 13.5905 25.0092 12.2854 25.042C12.1465 24.9418 12.1465 24.5392 12.2854 24.4554L13.1032 24.3386C13.8862 24.237 13.991 24.1198 13.991 22.5769V16.322C13.991 14.7961 13.8862 14.6793 13.1032 14.545L12.6685 14.4611C12.5123 14.3609 12.5296 13.9748 12.7033 13.8745C13.5211 13.9079 14.3736 13.9249 15.2087 13.9249H18.8971C20.0106 13.9249 21.0025 13.9079 21.2288 13.8745C21.2456 14.1426 21.3677 15.3499 21.4551 16.4734C21.3851 16.6576 20.9852 16.691 20.811 16.5408C20.62 15.9536 20.3763 15.4508 20.15 15.2156C19.819 14.8965 19.2975 14.6958 18.445 14.6958H17.0532C16.479 14.6958 16.479 14.7293 16.479 15.35V18.285C16.479 18.7543 16.4963 18.7877 16.9658 18.7877H18.1667C19.0712 18.7877 19.2628 18.6698 19.4538 17.8649L19.5407 17.4461C19.6628 17.3117 20.098 17.3117 20.1848 17.4631C20.15 17.9988 20.1321 18.6035 20.1321 19.2406C20.1321 19.8778 20.15 20.4808 20.1848 21.0176C20.0979 21.1683 19.6628 21.1854 19.5407 21.0347L19.4538 20.6152C19.2628 19.8103 19.0712 19.6766 18.1667 19.6766H16.9658C16.4964 19.6766 16.479 19.6929 16.479 20.1963V22.1915C16.479 22.963 16.5484 23.4998 16.7574 23.7849C16.9837 24.0864 17.3142 24.2202 18.5845 24.2202C20.0979 24.2202 20.6894 24.1708 21.6461 22.2754C21.7855 22.0906 22.2208 22.1581 22.2902 22.3599C22.2208 23.2317 21.8029 24.5898 21.5593 25.0421L21.5592 25.042ZM37.7516 0.212524L0.209961 19.6823L37.9863 39.1526L76.2314 19.6823L37.7516 0.212524Z" fill="white"/>
<path d="M55.6651 20.2797H56.3087C56.5529 20.2797 56.8312 20.2463 57.0228 20.129C57.109 20.0792 57.1444 19.9108 57.1444 19.7436C57.1444 19.1898 56.8139 18.8208 56.2225 18.8208C55.4909 18.8208 54.8647 19.4919 54.8647 20.0287C54.8647 20.2634 55.1084 20.2798 55.6652 20.2798" fill="white"/>
<path d="M40.0942 18.8208C39.3291 18.8208 38.7029 19.5758 38.7029 21.4032C38.7029 23.1643 39.2764 24.4556 40.2857 24.4556C41.2777 24.4556 41.5914 23.365 41.5914 21.8567C41.5561 20.2293 41.0862 18.8208 40.0942 18.8208Z" fill="white"/>
</g>
<defs>
<clipPath id="clip0_2_709">
<rect width="77" height="50" fill="white"/>
</clipPath>
</defs>
</svg>
