<svg width="104" height="20" viewBox="0 0 104 20" fill="none" xmlns="http://www.w3.org/2000/svg">
<g opacity="0.25">
<path d="M98.4768 17.0576C98.4768 15.5021 99.7121 14.2401 101.233 14.2401C102.754 14.2401 103.988 15.5021 103.988 17.0576C103.988 18.613 102.754 19.8741 101.233 19.8741C99.7121 19.8741 98.4768 18.613 98.4768 17.0576Z" fill="white"/>
<path d="M10.5781 9.59621C10.5781 7.8117 10.2408 6.48778 9.56609 5.62528C8.89058 4.76359 7.86732 4.33314 6.49167 4.33314H5.02829V15.2457H6.1479C7.67591 15.2457 8.79565 14.7827 9.50861 13.8533C10.2207 12.9256 10.5781 11.5063 10.5781 9.59621M15.7969 9.41036C15.7969 12.6615 14.9419 15.1666 13.2321 16.925C11.5223 18.6843 9.11865 19.5639 6.02034 19.5639H0V0.0826111H6.44058C9.42801 0.0826111 11.7344 0.882336 13.3597 2.48098C14.9842 4.08045 15.7969 6.38915 15.7969 9.41036" fill="white"/>
<path d="M32.4731 19.5637H37.2637V0.00088501H32.4731V19.5637Z" fill="white"/>
<path d="M43.9936 12.2667C43.9936 13.514 44.1531 14.4653 44.4714 15.1191C44.7904 15.7738 45.3246 16.1007 46.0759 16.1007C46.8191 16.1007 47.3447 15.7738 47.6509 15.1191C47.9572 14.4653 48.1095 13.514 48.1095 12.2667C48.1095 11.0259 47.9547 10.0901 47.6445 9.45826C47.3335 8.82483 46.8033 8.5077 46.0513 8.5077C45.316 8.5077 44.7904 8.82321 44.4714 9.45093C44.1531 10.0795 43.9936 11.0178 43.9936 12.2667ZM52.9854 12.2667C52.9854 14.6431 52.3761 16.4969 51.1543 17.8257C49.9334 19.1553 48.2243 19.8205 46.0273 19.8205C43.9203 19.8205 42.2431 19.1406 40.9982 17.7808C39.7517 16.421 39.1289 14.5836 39.1289 12.2667C39.1289 9.89768 39.739 8.05689 40.9608 6.74438C42.1825 5.43188 43.8955 4.77563 46.1014 4.77563C47.4644 4.77563 48.6702 5.07973 49.7149 5.68707C50.7604 6.29441 51.5675 7.16425 52.1345 8.2974C52.7023 9.42893 52.9854 10.7528 52.9854 12.2667Z" fill="white"/>
<path d="M54.8877 19.5638H59.6791V12.0768V5.03244H54.8877V19.5638Z" fill="white"/>
<path d="M54.8877 3.27474H59.6791V0H54.8877V3.27474Z" fill="white"/>
<path d="M69.386 15.8574C70.0328 15.8574 70.8031 15.6895 71.7019 15.356V19.0123C71.0559 19.3025 70.4419 19.5104 69.8581 19.6335C69.2744 19.7582 68.5893 19.8202 67.8053 19.8202C66.1968 19.8202 65.0372 19.4068 64.325 18.5818C63.6161 17.7568 63.2604 16.49 63.2604 14.7805V8.79024H61.5825V5.03369H63.2604V1.32281L68.0885 0.464355V5.03369H71.1453V8.79024H68.0885V14.4462C68.0885 15.387 68.5215 15.8574 69.386 15.8574" fill="white"/>
<path d="M80.4752 15.8574C81.122 15.8574 81.8924 15.6895 82.7912 15.356V19.0123C82.146 19.3025 81.5311 19.5104 80.9473 19.6335C80.3627 19.7582 79.6801 19.8202 78.8945 19.8202C77.286 19.8202 76.1265 19.4068 75.4159 18.5818C74.7053 17.7568 74.3497 16.49 74.3497 14.7805V8.79024H72.6709V5.03369H74.3497V1.26656L79.1769 0.464355V5.03369H82.2353V8.79024H79.1769V14.4462C79.1769 15.387 79.6099 15.8574 80.4752 15.8574" fill="white"/>
<path d="M88.8365 10.4964C88.9019 9.70071 89.1246 9.11783 89.5041 8.74528C89.8854 8.37354 90.3559 8.18768 90.9189 8.18768C91.533 8.18768 92.021 8.39635 92.3831 8.81701C92.7475 9.23521 92.9374 9.79528 92.9525 10.4964H88.8365V10.4964ZM95.593 6.48877C94.4542 5.34746 92.8384 4.77597 90.7482 4.77597C88.5511 4.77597 86.8604 5.43222 85.6754 6.74472C84.491 8.05723 83.8984 9.94041 83.8984 12.3942C83.8984 14.7706 84.5389 16.6032 85.8165 17.8896C87.0948 19.176 88.89 19.8201 91.2019 19.8201C92.3121 19.8201 93.2676 19.7426 94.0683 19.5885C94.8642 19.4361 95.6345 19.1605 96.3818 18.7627L95.6457 15.488C95.1026 15.7146 94.5858 15.8891 94.0977 16.004C93.3927 16.1711 92.6192 16.2551 91.777 16.2551C90.8536 16.2551 90.1246 16.0244 89.5903 15.563C89.0559 15.1007 88.7712 14.4632 88.7386 13.6513H97.302V11.42C97.302 9.27354 96.7326 7.62926 95.593 6.48877Z" fill="white"/>
<path d="M22.1551 10.4964C22.2205 9.70071 22.443 9.11783 22.8226 8.74528C23.203 8.37354 23.6744 8.18768 24.2383 8.18768C24.8508 8.18768 25.3388 8.39635 25.7017 8.81701C26.0661 9.23521 26.2551 9.79528 26.2719 10.4964H22.1551V10.4964ZM28.9124 6.48877C27.7728 5.34746 26.1578 4.77597 24.0668 4.77597C21.8688 4.77597 20.1789 5.43222 18.9946 6.74472C17.8103 8.05723 17.217 9.94041 17.217 12.3942C17.217 14.7706 17.8567 16.6032 19.1359 17.8896C20.4135 19.176 22.2086 19.8201 24.5205 19.8201C25.6307 19.8201 26.586 19.7426 27.3867 19.5885C28.1826 19.4361 28.9531 19.1605 29.7012 18.7627L28.9643 15.488C28.4211 15.7146 27.9043 15.8891 27.4171 16.004C26.7105 16.1711 25.9377 16.2551 25.0955 16.2551C24.1728 16.2551 23.4432 16.0244 22.9089 15.563C22.3737 15.1007 22.0898 14.4632 22.0572 13.6513H30.6206V11.42C30.6206 9.27354 30.0512 7.62926 28.9124 6.48877" fill="white"/>
</g>
</svg>
