<svg width="424" height="84" viewBox="0 0 424 84" fill="none" xmlns="http://www.w3.org/2000/svg">
<path d="M96.7818 27.5445C101.091 27.5445 104.547 28.8032 107.15 31.3205C109.752 33.8378 111.054 37.5712 111.054 42.5205V62.1045H103.054V43.5445C103.054 40.5578 102.35 38.3178 100.942 36.8245C99.5338 35.2885 97.5285 34.5205 94.9258 34.5205C91.9818 34.5205 89.6565 35.4165 87.9498 37.2085C86.2431 38.9578 85.3898 41.4965 85.3898 44.8245V62.1045H77.3898V14.6165H85.3898V31.8965C86.7125 30.4885 88.3338 29.4218 90.2538 28.6965C92.2165 27.9285 94.3925 27.5445 96.7818 27.5445ZM152.363 45.2085C152.363 45.7632 152.32 46.5525 152.235 47.5765H125.419C125.888 50.0938 127.104 52.0992 129.067 53.5925C131.072 55.0432 133.547 55.7685 136.491 55.7685C140.245 55.7685 143.339 54.5312 145.771 52.0565L150.059 56.9845C148.523 58.8192 146.581 60.2058 144.235 61.1445C141.888 62.0832 139.243 62.5525 136.299 62.5525C132.544 62.5525 129.237 61.8058 126.379 60.3125C123.52 58.8192 121.301 56.7498 119.723 54.1045C118.187 51.4165 117.419 48.3872 117.419 45.0165C117.419 41.6885 118.165 38.7018 119.659 36.0565C121.195 33.3685 123.307 31.2778 125.995 29.7845C128.683 28.2912 131.712 27.5445 135.083 27.5445C138.411 27.5445 141.376 28.2912 143.979 29.7845C146.624 31.2352 148.672 33.3045 150.123 35.9925C151.616 38.6378 152.363 41.7098 152.363 45.2085ZM135.083 33.9445C132.523 33.9445 130.347 34.7125 128.555 36.2485C126.805 37.7418 125.739 39.7472 125.355 42.2645H144.747C144.405 39.7898 143.36 37.7845 141.611 36.2485C139.861 34.7125 137.685 33.9445 135.083 33.9445ZM179.59 62.1045L170.822 50.2645L161.99 62.1045H153.158L166.47 44.7605L153.734 27.9285H162.63L171.014 39.1285L179.398 27.9285H188.038L175.238 44.6325L188.614 62.1045H179.59ZM212.629 27.5445C216.939 27.5445 220.395 28.8032 222.997 31.3205C225.6 33.8378 226.901 37.5712 226.901 42.5205V62.1045H218.901V43.5445C218.901 40.5578 218.197 38.3178 216.789 36.8245C215.381 35.2885 213.376 34.5205 210.773 34.5205C207.829 34.5205 205.504 35.4165 203.797 37.2085C202.091 38.9578 201.237 41.4965 201.237 44.8245V62.1045H193.237V14.6165H201.237V31.8965C202.56 30.4885 204.181 29.4218 206.101 28.6965C208.064 27.9285 210.24 27.5445 212.629 27.5445ZM268.858 27.9285V62.1045H261.242V57.7525C259.962 59.2885 258.362 60.4832 256.442 61.3365C254.522 62.1472 252.452 62.5525 250.234 62.5525C245.668 62.5525 242.063 61.2938 239.418 58.7765C236.815 56.2165 235.514 52.4405 235.514 47.4485V27.9285H243.514V46.3605C243.514 49.4325 244.196 51.7365 245.562 53.2725C246.97 54.7658 248.954 55.5125 251.514 55.5125C254.372 55.5125 256.634 54.6378 258.298 52.8885C260.004 51.0965 260.858 48.5365 260.858 45.2085V27.9285H268.858ZM297.444 27.5445C301.754 27.5445 305.21 28.8032 307.812 31.3205C310.415 33.8378 311.716 37.5712 311.716 42.5205V62.1045H303.716V43.5445C303.716 40.5578 303.012 38.3178 301.604 36.8245C300.196 35.2885 298.191 34.5205 295.588 34.5205C292.644 34.5205 290.319 35.4165 288.612 37.2085C286.906 38.9578 286.052 41.4965 286.052 44.8245V62.1045H278.052V27.9285H285.668V32.3445C286.991 30.7658 288.655 29.5712 290.66 28.7605C292.666 27.9498 294.927 27.5445 297.444 27.5445ZM341.129 60.2485C340.19 61.0165 339.038 61.5925 337.673 61.9765C336.35 62.3605 334.942 62.5525 333.449 62.5525C329.694 62.5525 326.793 61.5712 324.745 59.6085C322.697 57.6458 321.673 54.7872 321.673 51.0325V34.5845H316.041V28.1845H321.673V20.3765H329.673V28.1845H338.825V34.5845H329.673V50.8405C329.673 52.5045 330.078 53.7845 330.889 54.6805C331.699 55.5338 332.873 55.9605 334.409 55.9605C336.201 55.9605 337.694 55.4912 338.889 54.5525L341.129 60.2485ZM377.433 45.2085C377.433 45.7632 377.39 46.5525 377.305 47.5765H350.489C350.958 50.0938 352.174 52.0992 354.137 53.5925C356.142 55.0432 358.617 55.7685 361.561 55.7685C365.315 55.7685 368.409 54.5312 370.841 52.0565L375.129 56.9845C373.593 58.8192 371.651 60.2058 369.305 61.1445C366.958 62.0832 364.313 62.5525 361.369 62.5525C357.614 62.5525 354.307 61.8058 351.449 60.3125C348.59 58.8192 346.371 56.7498 344.793 54.1045C343.257 51.4165 342.489 48.3872 342.489 45.0165C342.489 41.6885 343.235 38.7018 344.729 36.0565C346.265 33.3685 348.377 31.2778 351.065 29.7845C353.753 28.2912 356.782 27.5445 360.153 27.5445C363.481 27.5445 366.446 28.2912 369.049 29.7845C371.694 31.2352 373.742 33.3045 375.193 35.9925C376.686 38.6378 377.433 41.7098 377.433 45.2085ZM360.153 33.9445C357.593 33.9445 355.417 34.7125 353.625 36.2485C351.875 37.7418 350.809 39.7472 350.425 42.2645H369.817C369.475 39.7898 368.43 37.7845 366.681 36.2485C364.931 34.7125 362.755 33.9445 360.153 33.9445ZM391.453 32.9205C393.757 29.3365 397.811 27.5445 403.613 27.5445V35.1605C402.931 35.0325 402.312 34.9685 401.757 34.9685C398.643 34.9685 396.211 35.8858 394.461 37.7205C392.712 39.5125 391.837 42.1152 391.837 45.5285V62.1045H383.837V27.9285H391.453V32.9205Z" fill="white"/>
<path fill-rule="evenodd" clip-rule="evenodd" d="M6.76331 12.5038C6.76331 9.39103 9.28666 6.86768 12.3994 6.86768H28.1804C31.2931 6.86768 33.8165 9.39103 33.8165 12.5038V51.9563C33.8165 59.4268 27.7604 65.4829 20.2899 65.4829C12.8194 65.4829 6.76331 59.4268 6.76331 51.9563V12.5038ZM20.2899 55.3379C22.1575 55.3379 23.6715 53.8239 23.6715 51.9563C23.6715 50.0887 22.1575 48.5746 20.2899 48.5746C18.4223 48.5746 16.9082 50.0887 16.9082 51.9563C16.9082 53.8239 18.4223 55.3379 20.2899 55.3379Z" fill="white"/>
<path d="M32.2203 65.4829H59.7428C62.8555 65.4829 65.3789 62.9595 65.3789 59.8468V44.0658C65.3789 40.9531 62.8555 38.4297 59.7428 38.4297H59.3226L33.043 64.7093C32.775 64.9774 32.5006 65.2352 32.2203 65.4829Z" fill="white"/>
<path d="M38.2901 53.0849L57.7511 33.6239C59.9521 31.4228 59.9521 27.8543 57.7511 25.6533L46.5923 14.4944C44.3912 12.2934 40.8227 12.2934 38.6216 14.4944L38.3249 14.7912V51.9563C38.3249 52.3353 38.3132 52.7116 38.2901 53.0849Z" fill="white"/>
</svg>
