<svg width="74" height="72" viewBox="0 0 74 72" fill="none" xmlns="http://www.w3.org/2000/svg">
<g opacity="0.25">
<path d="M36.4506 33.2886V42.3049H46.8666V31.8888H41.6568C39.7609 31.8888 37.9827 32.3995 36.4506 33.2886Z" fill="#838383"/>
<path d="M36.4506 21.4764V22.1303C38.1149 21.7041 39.8601 21.4764 41.6568 21.4764H46.8666C46.8666 15.7227 51.5291 11.0603 57.2827 11.0603V0.644226C45.7754 0.644226 36.4506 9.97276 36.4506 21.4764Z" fill="#838383"/>
<path d="M10.4161 21.4764H0V42.3049H10.4161V31.8888C16.166 31.8888 20.8285 36.5513 20.8285 42.3049C20.8285 37.0216 22.7941 32.2011 26.0347 28.5307C22.2209 24.2063 16.6363 21.4764 10.4161 21.4764Z" fill="#CAC7CA"/>
<path d="M26.0348 28.5306C29.279 32.2011 31.2447 37.0215 31.2447 42.3048C31.2447 38.4507 33.3389 35.0889 36.4509 33.2886V22.1304C32.3579 23.1848 28.7499 25.4554 26.0348 28.5306Z" fill="#AEABAB"/>
<path d="M46.8668 31.8888H52.073V21.4764H46.8668V31.8888Z" fill="#AEABAB"/>
<path d="M36.4506 22.1304V33.2887C37.9827 32.3995 39.7609 31.8888 41.6568 31.8888H46.8666V21.4764H41.6568C39.8601 21.4764 38.1149 21.7042 36.4506 22.1304Z" fill="#606060"/>
<path d="M20.8284 42.3049H31.2444C31.2444 37.0215 29.2788 32.2011 26.0346 28.5307C22.794 32.2011 20.8284 37.0215 20.8284 42.3049Z" fill="#8F8C8C"/>
<path d="M5.47807 63.1333V64.0666H1.11324V66.7156H4.94165V67.6488H1.11324V71.4662H0.00366211V63.1333H5.47807Z" fill="#838383"/>
<path d="M7.70807 65.4333V71.4662H6.71606V65.4333H7.70807ZM6.71606 64.0666V63.1333H7.70807V64.0666H6.71606Z" fill="#838383"/>
<path d="M10.2985 65.4332V66.3885H10.3205C10.7357 65.6573 11.386 65.2936 12.2825 65.2936C12.6793 65.2936 13.0099 65.3451 13.2745 65.4553C13.539 65.5618 13.7521 65.7161 13.9174 65.9109C14.0791 66.1056 14.1967 66.3371 14.2628 66.6053C14.3253 66.8735 14.362 67.1711 14.362 67.4981V71.4661H13.37V67.3805C13.37 67.0094 13.2598 66.7118 13.043 66.495C12.8226 66.2746 12.525 66.168 12.1429 66.168C11.8379 66.168 11.577 66.2158 11.3566 66.3077C11.1325 66.3995 10.9488 66.5318 10.8018 66.7045C10.6512 66.8735 10.5409 67.0755 10.4675 67.3033C10.394 67.5348 10.3572 67.7847 10.3572 68.0565V71.4661H9.36523V65.4332H10.2985" fill="#838383"/>
<path d="M19.2156 68.5562C19.0136 68.5967 18.8005 68.6333 18.58 68.6591C18.3596 68.6848 18.1354 68.7179 17.9077 68.7546C17.6835 68.7877 17.4815 68.8427 17.3014 68.9199C17.1251 69.0007 16.9781 69.111 16.8642 69.2543C16.7503 69.3976 16.6952 69.596 16.6952 69.8421C16.6952 70.0075 16.7283 70.1434 16.7944 70.2573C16.8605 70.3712 16.945 70.4631 17.0516 70.5329C17.1545 70.6027 17.2794 70.6541 17.4263 70.6835C17.5696 70.7166 17.7166 70.7313 17.8636 70.7313C18.1906 70.7313 18.4698 70.6872 18.7049 70.5953C18.9364 70.5072 19.1275 70.3969 19.2744 70.2573C19.4214 70.1214 19.5316 69.9744 19.6014 69.8127C19.6712 69.6548 19.708 69.5078 19.708 69.3645V68.3505C19.583 68.4424 19.4177 68.5121 19.2156 68.5562ZM19.7667 71.4661V70.6725C19.4912 70.9995 19.1752 71.2346 18.8152 71.3779C18.4514 71.5212 18.062 71.5947 17.6394 71.5947C17.3676 71.5947 17.1104 71.5654 16.8716 71.5066C16.6291 71.4478 16.416 71.3523 16.2359 71.2163C16.0522 71.0804 15.9089 70.904 15.8024 70.6909C15.6958 70.4778 15.6444 70.217 15.6444 69.912C15.6444 69.574 15.7032 69.2911 15.8208 69.0743C15.9383 68.8539 16.089 68.6775 16.28 68.5416C16.4711 68.4056 16.6879 68.3028 16.934 68.2329C17.1802 68.1632 17.43 68.1044 17.6872 68.0566C17.9591 68.0015 18.22 67.9611 18.4624 67.9353C18.7086 67.9097 18.9254 67.8692 19.1128 67.8178C19.3001 67.7663 19.4471 67.6965 19.5536 67.5973C19.6639 67.4981 19.719 67.3585 19.719 67.1711C19.719 66.9544 19.6786 66.778 19.5977 66.6457C19.5132 66.5135 19.4104 66.4106 19.2818 66.3445C19.1532 66.2747 19.0099 66.2269 18.8482 66.2012C18.6902 66.1792 18.5323 66.168 18.3743 66.168C17.9554 66.168 17.6064 66.2452 17.3271 66.4069C17.0442 66.5648 16.8936 66.8698 16.8716 67.3107H15.8796C15.8943 66.9396 15.9714 66.62 16.111 66.3664C16.2506 66.1093 16.438 65.8998 16.6732 65.7418C16.9046 65.5802 17.1728 65.4663 17.4778 65.3965C17.7827 65.3267 18.0987 65.2936 18.433 65.2936C18.7086 65.2936 18.9768 65.312 19.245 65.3524C19.5132 65.3892 19.7557 65.47 19.9762 65.5875C20.1929 65.7088 20.3693 65.8815 20.5016 66.0982C20.6338 66.315 20.7 66.5979 20.7 66.9506V71.4661H19.7667Z" fill="#838383"/>
<path d="M23.29 65.4332V66.3885H23.3121C23.7236 65.6573 24.3776 65.2936 25.274 65.2936C25.6708 65.2936 26.0015 65.3451 26.2661 65.4553C26.5306 65.5618 26.7437 65.7161 26.909 65.9109C27.0707 66.1056 27.1883 66.3371 27.2507 66.6053C27.3168 66.8735 27.3536 67.1711 27.3536 67.4981V71.4661H26.3616V67.3805C26.3616 67.0094 26.2514 66.7118 26.0309 66.495C25.8141 66.2746 25.5165 66.168 25.1344 66.168C24.8295 66.168 24.5686 66.2158 24.3482 66.3077C24.1241 66.3995 23.9403 66.5318 23.7897 66.7045C23.6427 66.8735 23.5325 67.0755 23.459 67.3033C23.3856 67.5348 23.3488 67.7847 23.3488 68.0565V71.4661H22.3568V65.4332H23.29" fill="#838383"/>
<path d="M29.7198 70.1178C29.8153 70.2721 29.9366 70.3896 30.0872 70.4778C30.2415 70.5697 30.4105 70.6358 30.6016 70.6725C30.7926 70.713 30.991 70.7313 31.1931 70.7313C31.3474 70.7313 31.5128 70.7203 31.6818 70.6982C31.8544 70.6725 32.0124 70.6321 32.1557 70.5659C32.299 70.5072 32.4166 70.4153 32.5121 70.2941C32.604 70.1728 32.6517 70.0185 32.6517 69.8311C32.6517 69.5776 32.5525 69.3792 32.3578 69.2506C32.1667 69.1147 31.9206 69.0081 31.6303 68.9273C31.3364 68.8465 31.0204 68.773 30.6787 68.7068C30.337 68.6407 30.0174 68.5452 29.7271 68.4276C29.4369 68.3064 29.1907 68.1374 28.9997 67.9206C28.8013 67.7001 28.7057 67.3989 28.7057 67.0094C28.7057 66.7045 28.7756 66.4436 28.9115 66.2268C29.0474 66.0101 29.2201 65.83 29.4369 65.6941C29.65 65.5581 29.8925 65.4589 30.1607 65.3928C30.4289 65.323 30.6934 65.2936 30.958 65.2936C31.2997 65.2936 31.6156 65.323 31.9022 65.3818C32.1925 65.4369 32.446 65.5397 32.6701 65.683C32.8905 65.8263 33.0669 66.0211 33.1992 66.2672C33.3314 66.5097 33.4086 66.8146 33.4343 67.182H32.4423C32.4239 66.9873 32.3762 66.8257 32.288 66.6971C32.2035 66.5685 32.0933 66.4656 31.961 66.3884C31.8287 66.3113 31.6854 66.2562 31.5238 66.2195C31.3658 66.1864 31.2041 66.168 31.0388 66.168C30.8918 66.168 30.7412 66.179 30.5906 66.2011C30.4399 66.2268 30.3003 66.2672 30.1754 66.3224C30.0505 66.3811 29.9513 66.462 29.8741 66.5575C29.7933 66.6567 29.7565 66.7816 29.7565 66.9396C29.7565 67.1086 29.8153 67.2519 29.9366 67.3621C30.0578 67.476 30.2121 67.5679 30.3995 67.645C30.5869 67.7185 30.7963 67.781 31.0278 67.8324C31.2629 67.8802 31.4944 67.9316 31.7295 67.9904C31.9794 68.0418 32.2219 68.108 32.457 68.1851C32.6958 68.2623 32.9052 68.3688 33.0889 68.4974C33.2726 68.626 33.4196 68.784 33.5335 68.9787C33.6437 69.1735 33.7025 69.4159 33.7025 69.7025C33.7025 70.0699 33.6254 70.3712 33.4747 70.6137C33.3204 70.8562 33.1257 71.0509 32.8795 71.1979C32.6334 71.3448 32.3578 71.4477 32.0492 71.5065C31.7405 71.5653 31.4356 71.5946 31.1343 71.5946C30.8 71.5946 30.4803 71.5579 30.1754 71.4918C29.8741 71.4183 29.6059 71.3044 29.3708 71.1464C29.1393 70.9847 28.9519 70.7753 28.8123 70.5144C28.669 70.2536 28.5918 69.9376 28.5771 69.5629H29.5692C29.5765 69.7833 29.6279 69.967 29.7198 70.1176" fill="#838383"/>
<path d="M39.0042 63.1297L37.9498 64.603H36.9688L38.0196 63.1297H39.0042ZM35.8739 69.4307C35.9694 69.7137 36.1054 69.9488 36.2781 70.1435C36.4471 70.3309 36.6491 70.4779 36.8769 70.5771C37.1084 70.6799 37.3509 70.7314 37.6044 70.7314C37.8653 70.7314 38.1078 70.6799 38.3355 70.5771C38.567 70.4779 38.7654 70.3309 38.9381 70.1435C39.1108 69.9488 39.2431 69.7137 39.3423 69.4307C39.4378 69.1442 39.4855 68.8208 39.4855 68.4571C39.4855 68.0897 39.4378 67.7627 39.3423 67.4798C39.2431 67.1969 39.1108 66.9581 38.9381 66.7634C38.7654 66.5686 38.567 66.4217 38.3355 66.3188C38.1078 66.2159 37.8653 66.1681 37.6044 66.1681C37.3509 66.1681 37.1084 66.2159 36.8769 66.3188C36.6491 66.4217 36.4471 66.5686 36.2781 66.7634C36.1054 66.9581 35.9694 67.1969 35.8739 67.4798C35.7747 67.7627 35.7269 68.0897 35.7269 68.4571C35.7269 68.8208 35.7747 69.1442 35.8739 69.4307ZM34.8635 67.2116C34.9884 66.8258 35.1758 66.4915 35.422 66.2086C35.6718 65.922 35.9805 65.6979 36.3479 65.5362C36.7116 65.3745 37.1304 65.2937 37.6044 65.2937C38.0894 65.2937 38.5119 65.3745 38.8756 65.5362C39.2357 65.6979 39.5407 65.922 39.7905 66.2086C40.0403 66.4915 40.2277 66.8258 40.349 67.2116C40.4739 67.5974 40.5363 68.0126 40.5363 68.4571C40.5363 68.898 40.4739 69.3132 40.349 69.6916C40.2277 70.0737 40.0403 70.4081 39.7905 70.691C39.5407 70.9739 39.2357 71.198 38.8756 71.356C38.5119 71.514 38.0894 71.5948 37.6044 71.5948C37.1304 71.5948 36.7116 71.514 36.3479 71.356C35.9805 71.198 35.6718 70.9739 35.422 70.691C35.1758 70.4081 34.9884 70.0737 34.8635 69.6916C34.7386 69.3132 34.6761 68.898 34.6761 68.4571C34.6761 68.0126 34.7386 67.5974 34.8635 67.2116Z" fill="#838383"/>
<path d="M46.6132 71.4662L45.3897 66.6678H45.3677L44.1552 71.4662H43.0787L41.1388 65.4333H42.2373L43.6041 70.3713H43.6298L44.8423 65.4333H45.9261L47.1864 70.3713H47.2121L48.5641 65.4333H49.5929L47.664 71.4662H46.6132" fill="#838383"/>
<path d="M2.58666 50.634L4.53761 56.3656H4.55965L6.40405 50.634H8.98327V58.9706H7.26746V53.0626H7.24174L5.20262 58.9706H3.78809L1.74529 53.1214H1.72325V58.9706H0.00744629V50.634H2.58666Z" fill="#CAC7CA"/>
<path d="M12.4148 52.934V58.9706H10.7578V52.934H12.4148ZM10.7578 52.0008V50.634H12.4148V52.0008H10.7578Z" fill="#CAC7CA"/>
<path d="M15.5892 52.934V53.7754H15.6223C15.8354 53.4227 16.1073 53.1692 16.4416 53.0075C16.776 52.8495 17.1177 52.7687 17.4704 52.7687C17.9113 52.7687 18.275 52.8312 18.5579 52.9524C18.8445 53.07 19.0686 53.239 19.2303 53.4558C19.3956 53.6689 19.5095 53.9297 19.5756 54.2347C19.6418 54.5433 19.6748 54.8813 19.6748 55.2561V58.9706H18.0178V55.561C18.0178 55.0613 17.9407 54.6903 17.7827 54.4478C17.6284 54.2016 17.3528 54.0804 16.956 54.0804C16.5041 54.0804 16.1771 54.2126 15.975 54.4808C15.773 54.749 15.6701 55.1899 15.6701 55.8072V58.9706H14.0131V52.934H15.5892" fill="#CAC7CA"/>
<path d="M22.9302 52.934V58.9706H21.2732V52.934H22.9302ZM21.2732 52.0008V50.634H22.9302V52.0008H21.2732Z" fill="#CAC7CA"/>
<path d="M25.9246 57.4679C25.9981 57.5965 26.0936 57.703 26.2111 57.7838C26.3287 57.8646 26.461 57.9271 26.6116 57.9639C26.7659 58.0043 26.9239 58.0227 27.0856 58.0227C27.2032 58.0227 27.3244 58.008 27.453 57.9822C27.5816 57.9528 27.6992 57.9124 27.8057 57.8536C27.9086 57.7948 27.9968 57.7177 28.0666 57.6221C28.1364 57.5229 28.1731 57.4017 28.1731 57.2548C28.1731 57.0049 28.0078 56.8176 27.6771 56.6926C27.3464 56.5677 26.8835 56.4427 26.292 56.3178C26.0532 56.2664 25.818 56.2003 25.5866 56.1268C25.3588 56.0534 25.153 55.9541 24.973 55.8329C24.7929 55.7153 24.6497 55.5647 24.5431 55.381C24.4329 55.1973 24.3778 54.9731 24.3778 54.7086C24.3778 54.3191 24.4549 53.9995 24.6056 53.7534C24.7599 53.5035 24.9583 53.3051 25.2081 53.1618C25.458 53.0185 25.7372 52.9156 26.0495 52.8605C26.3581 52.8017 26.6778 52.7686 27.0048 52.7686C27.3317 52.7686 27.6477 52.8017 27.9563 52.8642C28.2613 52.9266 28.5369 53.0332 28.7793 53.1765C29.0182 53.3271 29.2202 53.5218 29.3782 53.768C29.5399 54.0142 29.6354 54.3228 29.6648 54.6975H28.0886C28.0666 54.3779 27.9453 54.1611 27.7286 54.0472C27.5118 53.937 27.2546 53.8782 26.957 53.8782C26.8651 53.8782 26.7623 53.8857 26.6557 53.8965C26.5455 53.9075 26.4463 53.9333 26.3581 53.9737C26.2663 54.0105 26.1928 54.0692 26.1303 54.1427C26.0679 54.2162 26.0348 54.3154 26.0348 54.4403C26.0348 54.5873 26.0899 54.7085 26.2001 54.8004C26.3067 54.8959 26.45 54.973 26.6263 55.0282C26.799 55.0869 27.0011 55.1421 27.2252 55.1861C27.453 55.2339 27.6808 55.2817 27.9159 55.3405C28.1547 55.3919 28.3899 55.458 28.6214 55.5352C28.8492 55.616 29.0549 55.7189 29.2349 55.8475C29.415 55.9761 29.5583 56.1341 29.6648 56.3251C29.775 56.5162 29.8301 56.7513 29.8301 57.0305C29.8301 57.4273 29.7493 57.758 29.5913 58.0299C29.4297 58.2981 29.2239 58.5149 28.9667 58.6765C28.7095 58.8419 28.4156 58.9558 28.0849 59.0219C27.7543 59.088 27.4163 59.1211 27.0746 59.1211C26.7255 59.1211 26.3802 59.0843 26.0495 59.0146C25.7151 58.9448 25.4139 58.8272 25.153 58.6655C24.8958 58.5039 24.6791 58.2834 24.5137 58.0189C24.3447 57.7507 24.2529 57.4126 24.2382 57.0085H25.8143C25.8143 57.1849 25.8511 57.3392 25.9246 57.4678" fill="#CAC7CA"/>
<path d="M34.4045 52.934V54.0436H33.192V56.869C33.192 57.4789 33.4602 57.6846 34.015 57.6846C34.151 57.6846 34.4045 57.6846 34.4045 57.6846V58.9706C34.4045 58.9706 33.835 58.9706 33.5043 58.9706C32.2074 58.9706 31.535 58.2174 31.535 57.1335V54.0436H30.5283V52.934H31.535V51.1227H33.192V52.934H34.4045Z" fill="#CAC7CA"/>
<path d="M57.1911 52.934V54.0436H55.9787V56.869C55.9787 57.4789 56.2432 57.6846 56.8017 57.6846C56.9376 57.6846 57.1911 57.6846 57.1911 57.6846V58.9706C57.1911 58.9706 56.6216 58.9706 56.2873 58.9706C54.994 58.9706 54.3216 58.2174 54.3216 57.1335V54.0436H53.3149V52.934H54.3216V51.1227H55.9787V52.934H57.1911Z" fill="#CAC7CA"/>
<path d="M39.177 54.3449C38.9786 54.1281 38.6774 54.0216 38.2732 54.0216C38.0087 54.0216 37.7882 54.062 37.6119 54.1538C37.4392 54.242 37.2996 54.3522 37.193 54.4845C37.0865 54.6205 37.013 54.7601 36.9689 54.907C36.9285 55.054 36.9028 55.1863 36.8954 55.3038H39.5922C39.5151 54.8813 39.3754 54.5653 39.177 54.3449H39.177ZM37.3032 57.5193C37.5531 57.7618 37.9095 57.8831 38.3761 57.8831C38.7104 57.8831 39.0007 57.7986 39.2395 57.6332C39.482 57.4642 39.6326 57.2878 39.6841 57.1005H41.1427C40.9112 57.8243 40.5511 58.3423 40.0698 58.6546C39.5885 58.9669 39.0044 59.1212 38.3173 59.1212C37.8433 59.1212 37.4171 59.0441 37.035 58.8934C36.6529 58.7428 36.3296 58.526 36.0651 58.2431C35.8005 57.9639 35.5985 57.6295 35.4552 57.2401C35.3082 56.8543 35.2384 56.4244 35.2384 55.9578C35.2384 55.5059 35.3119 55.0871 35.4588 54.6976C35.6058 54.3081 35.8189 53.9701 36.0908 53.6872C36.3627 53.4006 36.686 53.1765 37.0644 53.0149C37.4429 52.8532 37.8617 52.7687 38.3173 52.7687C38.8317 52.7687 39.2799 52.8716 39.662 53.0663C40.0441 53.2684 40.3564 53.5329 40.5989 53.8673C40.8451 54.2016 41.0214 54.5837 41.1317 55.0099C41.2419 55.4398 41.2823 55.888 41.2492 56.3546H36.8954C36.9175 56.8911 37.0534 57.2805 37.3032 57.5193Z" fill="#CAC7CA"/>
<path d="M48.7074 57.4679C48.7809 57.5965 48.8801 57.703 48.994 57.7838C49.1116 57.8646 49.2438 57.9271 49.3981 57.9639C49.5488 58.0043 49.7068 58.0227 49.8721 58.0227C49.986 58.0227 50.1109 58.008 50.2358 57.9822C50.3644 57.9528 50.482 57.9124 50.5885 57.8536C50.6951 57.7948 50.7796 57.7177 50.8531 57.6221C50.9229 57.5229 50.956 57.4017 50.956 57.2548C50.956 57.0049 50.7906 56.8176 50.46 56.6926C50.1293 56.5677 49.6664 56.4427 49.0748 56.3178C48.836 56.2664 48.6009 56.2003 48.3694 56.1268C48.1416 56.0534 47.9359 55.9541 47.7595 55.8329C47.5795 55.7153 47.4325 55.5647 47.3259 55.381C47.2157 55.1973 47.1643 54.9731 47.1643 54.7086C47.1643 54.3191 47.2378 53.9995 47.3921 53.7534C47.5427 53.5035 47.7411 53.3051 47.991 53.1618C48.2408 53.0185 48.52 52.9156 48.8323 52.8605C49.141 52.8017 49.4643 52.7686 49.7876 52.7686C50.1146 52.7686 50.4306 52.8017 50.7392 52.8642C51.0478 52.9266 51.3234 53.0332 51.5622 53.1765C51.8047 53.3271 52.0031 53.5218 52.1647 53.768C52.3227 54.0142 52.4183 54.3228 52.4513 54.6975H50.8751C50.8531 54.3779 50.7282 54.1611 50.5114 54.0472C50.2946 53.937 50.0374 53.8782 49.7435 53.8782C49.648 53.8782 49.5451 53.8857 49.4386 53.8965C49.3283 53.9075 49.2291 53.9333 49.141 53.9737C49.0528 54.0105 48.9756 54.0692 48.9132 54.1427C48.8507 54.2162 48.8213 54.3154 48.8213 54.4403C48.8213 54.5873 48.8764 54.7085 48.983 54.8004C49.0932 54.8959 49.2328 54.973 49.4092 55.0282C49.5855 55.0869 49.7839 55.1421 50.0117 55.1861C50.2358 55.2339 50.4673 55.2817 50.6988 55.3405C50.9413 55.3919 51.1764 55.458 51.4042 55.5352C51.6357 55.616 51.8377 55.7189 52.0178 55.8475C52.1978 55.9761 52.3411 56.1341 52.4513 56.3251C52.5579 56.5162 52.613 56.7513 52.613 57.0305C52.613 57.4273 52.5321 57.758 52.3742 58.0299C52.2162 58.2981 52.0067 58.5149 51.7496 58.6765C51.4924 58.8419 51.1984 58.9558 50.8678 59.0219C50.5371 59.088 50.1991 59.1211 49.8611 59.1211C49.5084 59.1211 49.1667 59.0843 48.8323 59.0146C48.498 58.9448 48.2004 58.8272 47.9395 58.6655C47.6787 58.5039 47.4656 58.2834 47.2966 58.0189C47.1275 57.7507 47.0394 57.4126 47.021 57.0085H48.5972C48.5972 57.1849 48.6339 57.3392 48.7074 57.4678" fill="#CAC7CA"/>
<path d="M63.7566 58.9706L62.6837 54.9181H62.658L61.6329 58.9706H59.9171L58.0029 52.9341H59.7555L60.8614 57.0307H60.8834L61.8901 52.9341H63.4994L64.5281 57.0197H64.5502L65.6598 52.9341H67.3645L65.4614 58.9706H63.7566" fill="#CAC7CA"/>
<path d="M69.4845 56.6633C69.5323 56.891 69.6131 57.1005 69.7233 57.2805C69.8372 57.4642 69.9842 57.6112 70.1716 57.7177C70.359 57.8279 70.5941 57.8831 70.8733 57.8831C71.1526 57.8831 71.3877 57.8279 71.5788 57.7177C71.7698 57.6112 71.9241 57.4642 72.0343 57.2805C72.1482 57.1005 72.2254 56.891 72.2732 56.6633C72.3209 56.4355 72.343 56.2003 72.343 55.9578C72.343 55.7153 72.3209 55.4765 72.2732 55.245C72.2254 55.0099 72.1482 54.8078 72.0343 54.6278C71.9241 54.4478 71.7698 54.3008 71.5788 54.1869C71.3877 54.0767 71.1526 54.0216 70.8733 54.0216C70.5941 54.0216 70.359 54.0767 70.1716 54.1869C69.9842 54.3008 69.8372 54.4478 69.7233 54.6278C69.6131 54.8078 69.5323 55.0099 69.4845 55.245C69.4368 55.4765 69.4147 55.7153 69.4147 55.9578C69.4147 56.2003 69.4368 56.4355 69.4845 56.6633ZM67.9781 54.6425C68.1251 54.2494 68.3382 53.9187 68.6101 53.6395C68.882 53.3639 69.209 53.1508 69.5874 52.9965C69.9695 52.8459 70.3994 52.7687 70.8733 52.7687C71.3473 52.7687 71.7772 52.8458 72.1629 52.9965C72.5487 53.1508 72.8757 53.3639 73.1513 53.6395C73.4195 53.9187 73.6326 54.2494 73.7795 54.6425C73.9265 55.0393 74 55.4728 74 55.9578C74 56.4391 73.9265 56.8764 73.7795 57.2658C73.6326 57.6516 73.4195 57.9859 73.1513 58.2615C72.8757 58.537 72.5487 58.7501 72.1629 58.9008C71.7772 59.0441 71.3473 59.1212 70.8733 59.1212C70.3994 59.1212 69.9695 59.0441 69.5874 58.9008C69.209 58.7501 68.882 58.537 68.6101 58.2615C68.3382 57.9859 68.1251 57.6516 67.9781 57.2658C67.8312 56.8764 67.7577 56.4391 67.7577 55.9578C67.7577 55.4728 67.8312 55.0393 67.9781 54.6425Z" fill="#CAC7CA"/>
<path d="M44.0709 52.934V53.6725H44.0967C44.5339 53.0589 45.4818 52.8091 46.3856 52.8275V54.1906C44.8939 54.1612 44.1554 54.9107 44.1554 56.0129V58.9706H42.4948V52.934H44.0709" fill="#CAC7CA"/>
</g>
</svg>
