<svg width="546" height="103" viewBox="0 0 546 103" fill="none" xmlns="http://www.w3.org/2000/svg">
<path d="M-0.000976562 31.802C0.832601 68.1174 40.3418 93.9312 59.9921 102.299C99.0749 81.7844 118.735 52.1634 120.819 38.0777L78.1143 3.97959C74.2419 5.83118 70.8086 8.48672 68.0429 11.7693C65.2773 15.0519 63.243 18.8861 62.0754 23.0166C62.0307 23.2602 61.902 23.4805 61.7117 23.6391C61.5213 23.7976 61.2815 23.8845 61.0338 23.8845C60.786 23.8845 60.5461 23.7976 60.3558 23.6391C60.1655 23.4805 60.0368 23.2602 59.9921 23.0166C58.5841 16.7821 55.0463 11.2336 49.9879 7.32678C21.7442 -13.7342 -0.000976562 15.6948 -0.000976562 31.802Z" fill="#521888"/>
<path d="M78.5312 4.55518C75.3102 19.0365 79.2565 46.0665 120.818 38.344L78.5312 4.55518Z" fill="#9E6DF7"/>
<path d="M179.019 93.0321V70.9263C182.771 74.2759 187.558 76.2359 192.582 76.4783C195.597 76.5294 198.586 75.9147 201.336 74.6782C204.087 73.4417 206.53 71.6137 208.493 69.3245C212.714 64.4469 214.928 58.1496 214.688 51.7036C214.688 43.5881 212.445 37.4301 207.96 33.2296C204.844 30.3876 200.751 28.8578 196.534 28.9589C193.45 28.7956 190.379 29.4747 187.651 30.9232C184.923 32.3717 182.64 34.5352 181.047 37.1817C180.194 38.603 179.478 40.103 178.911 41.6611L178.377 30.0206H163V32.6914H171.009V86.6196C171.009 89.8951 170.083 91.8532 168.232 92.4939C166.523 92.9243 164.761 93.1043 163 93.0284V95.6974H189.164C189.164 94.1316 188.63 93.2774 187.562 93.1346C187.212 93.0567 186.854 93.021 186.495 93.0284L179.019 93.0321ZM193.115 33.2314C199.308 33.2314 203.223 37.1116 204.861 44.8719C205.384 47.473 205.634 50.1215 205.608 52.7744C205.608 63.2403 202.796 69.8615 197.171 72.6378C195.503 73.4281 193.677 73.8299 191.831 73.813C186.349 73.813 182.576 70.9299 180.511 65.1637C179.377 61.8306 178.835 58.3246 178.909 54.8045C178.909 45.5492 181.294 39.1423 186.063 35.5837C188.094 34.0509 190.57 33.2247 193.115 33.2314ZM242.08 72.7422H236.312V6H220.295V8.66895H228.303V66.3315C228.303 69.6058 227.378 71.5633 225.526 72.204C223.818 72.6344 222.055 72.8145 220.295 72.7385V75.4075H244.749C244.749 73.8417 244.215 72.9875 243.147 72.8447C242.797 72.768 242.439 72.7336 242.08 72.7422ZM287.2 76.4802C292.682 76.4802 295.708 73.1699 296.277 66.5494C296.345 66.1612 296.381 65.7682 296.384 65.3742L293.607 65.2753C293.109 70.4729 291.721 73.1071 289.442 73.1778C287.591 73.0351 286.63 71.1844 286.559 67.6258V45.0843C286.559 34.9039 281.469 29.5288 271.289 28.9589H269.366C261.393 28.9589 256.053 30.8096 253.347 34.511C252.55 35.5566 252.102 36.8265 252.066 38.1409C252.012 38.5976 252.049 39.0605 252.176 39.5025C252.303 39.9444 252.517 40.3566 252.806 40.7147C253.094 41.0728 253.451 41.3696 253.856 41.5878C254.261 41.8059 254.705 41.941 255.163 41.9851C255.514 42.0556 255.872 42.0912 256.23 42.0913C257.868 42.0913 259.078 41.0589 259.86 38.994C260.403 37.3732 261.081 35.8013 261.889 34.2949C262.648 33.3752 263.619 32.6526 264.718 32.1886C265.817 31.7245 267.011 31.5328 268.2 31.6297C274.893 32.0568 278.346 35.7234 278.56 42.6295V49.3495C261.829 49.3495 252.254 52.8379 249.834 59.8148C249.397 61.2328 249.181 62.7097 249.194 64.1935C249.027 66.5692 249.634 68.9351 250.923 70.9372C252.213 72.9392 254.117 74.4697 256.349 75.2995C258.282 76.0848 260.35 76.484 262.436 76.4747C264.872 76.527 267.293 76.0801 269.55 75.1615C271.807 74.2428 273.852 72.8719 275.559 71.1331C276.769 69.8947 277.748 68.4511 278.451 66.8697C279.306 73.2047 282.222 76.4082 287.2 76.4802ZM265.949 72.2076C264.034 72.3525 262.136 71.7578 260.646 70.5459C259.157 69.334 258.188 67.5971 257.94 65.6927C257.717 64.6038 257.61 63.4944 257.62 62.383C257.62 57.6126 260.361 54.5867 265.843 53.3053C270.035 52.5485 274.29 52.1912 278.55 52.2381V60.7813C278.173 63.0032 277.269 65.1024 275.915 66.9034C274.56 68.7043 272.793 70.1547 270.763 71.1331C269.25 71.8208 267.611 72.1867 265.949 72.2076ZM305.727 92.3914C304.588 92.3914 303.734 91.5371 303.164 89.8286C302.774 88.3383 302.001 86.9759 300.922 85.8764C300.256 85.4417 299.474 85.2184 298.679 85.2357C298.223 85.1692 297.758 85.194 297.312 85.3088C296.865 85.4235 296.446 85.6258 296.079 85.9039C295.711 86.1821 295.402 86.5305 295.171 86.929C294.939 87.3274 294.789 87.768 294.729 88.225C294.664 88.4688 294.628 88.7196 294.623 88.9719C294.623 91.6775 296.189 93.6356 299.322 94.8462C300.748 95.4163 302.271 95.7066 303.807 95.701C309.43 95.701 314.307 92.248 318.436 85.3419C320.342 82.1709 321.985 78.8496 323.35 75.4111L339.153 36.433C339.866 34.4402 340.649 33.301 341.503 33.0154C342.06 32.8652 342.635 32.7932 343.211 32.8012C344.635 32.8012 345.454 32.4095 345.668 31.626C345.823 31.1066 345.894 30.566 345.88 30.0243H329.65V32.8012H337.445L323.776 66.9759L309.146 32.803H316.3V30.0261H295.476V32.803H300.711L319.932 75.4111C315.945 84.808 312.207 90.2539 308.718 91.7489C307.775 92.1653 306.757 92.384 305.727 92.3914Z" fill="#1B1B1B"/>
<path d="M384.914 75.4111H400.185C400.185 73.8454 399.651 72.9911 398.583 72.8483C398.233 72.7703 397.875 72.7347 397.516 72.7422H392.176L391.964 6H373.808V8.66895H383.953V34.7251C382.164 32.7973 379.976 31.2826 377.542 30.2868C375.108 29.2909 372.485 28.8377 369.858 28.9589C366.215 28.8443 362.615 29.7672 359.476 31.62C356.338 33.4728 353.79 36.1793 352.131 39.4242C349.677 43.8276 348.425 48.7993 348.501 53.8398C348.501 62.668 351.277 69.1109 356.83 73.1687C359.847 75.3383 363.473 76.4969 367.189 76.4783C374.949 76.3355 380.573 72.2064 384.061 64.0909L384.914 75.4111ZM357.579 52.5584C357.579 42.5209 360.284 36.0065 365.695 33.0154C367.434 32.0827 369.381 31.6053 371.354 31.6278C376.55 31.6278 380.252 34.4042 382.46 39.9569C383.739 43.3312 384.355 46.9205 384.275 50.5283C384.275 59.0709 382.14 65.2649 377.868 69.1103C375.765 71.1058 372.974 72.2149 370.074 72.2076C364.236 72.2076 360.427 68.6478 358.648 61.5282C357.899 58.5982 357.539 55.5823 357.579 52.5584ZM442.315 76.4802C447.796 76.4802 450.822 73.1699 451.393 66.5494C451.46 66.1612 451.496 65.7681 451.499 65.3742L448.722 65.2753C448.224 70.4729 446.837 73.1071 444.559 73.1778C442.707 73.0351 441.745 71.1844 441.674 67.6257V45.0843C441.674 34.9039 436.584 29.5288 426.404 28.9589H424.482C416.509 28.9589 411.169 30.8096 408.463 34.5109C407.665 35.5565 407.217 36.8265 407.181 38.1409C407.127 38.5976 407.164 39.0605 407.291 39.5025C407.419 39.9444 407.633 40.3566 407.921 40.7147C408.21 41.0728 408.567 41.3696 408.972 41.5878C409.376 41.8059 409.821 41.941 410.279 41.9851C410.63 42.0557 410.987 42.0913 411.346 42.0913C412.983 42.0913 414.193 41.0589 414.976 38.994C415.518 37.3733 416.197 35.8014 417.004 34.2949C417.762 33.3762 418.731 32.6538 419.828 32.1892C420.925 31.7246 422.117 31.5314 423.305 31.626C429.997 32.0531 433.45 35.7197 433.664 42.6258V49.3495C416.934 49.3495 407.358 52.8379 404.937 59.8148C404.5 61.2329 404.284 62.7097 404.296 64.1935C404.129 66.5692 404.736 68.9351 406.026 70.9372C407.316 72.9392 409.22 74.4697 411.452 75.2995C413.385 76.0848 415.452 76.484 417.539 76.4747C419.976 76.5289 422.4 76.083 424.658 75.1647C426.917 74.2463 428.964 72.8748 430.673 71.1349C431.88 69.8938 432.857 68.4477 433.558 66.8642C434.413 73.2028 437.332 76.4082 442.315 76.4802ZM421.064 72.2095C419.149 72.3544 417.252 71.7596 415.762 70.5477C414.272 69.3358 413.303 67.5989 413.055 65.6945C412.832 64.6057 412.725 63.4963 412.735 62.3849C412.735 57.6144 415.476 54.5885 420.958 53.3071C425.151 52.5503 429.406 52.193 433.666 52.2399V60.7831C433.289 63.0071 432.385 65.1083 431.028 66.9107C429.672 68.7131 427.904 70.1642 425.871 71.1423C424.36 71.8257 422.723 72.1903 421.064 72.2095ZM451.982 32.6914H459.458V62.8114C459.956 71.7103 464.049 76.302 471.738 76.5863C478.287 76.5863 482.381 72.564 484.017 64.5193V64.3051L481.134 63.7706C479.355 69.6796 476.756 72.8831 473.339 73.381C469.494 73.2382 467.536 70.4973 467.465 65.1582V32.6914H484.017V30.0261H467.467V17.6387L459.458 19.8775V30.0224H451.982V32.6914ZM508.955 31.6242C513.939 31.6242 517.25 33.7244 518.887 37.9249C519.464 39.3123 519.754 40.8015 519.742 42.3036C519.883 43.8391 519.43 45.3702 518.477 46.582C517.524 47.7938 516.142 48.5942 514.617 48.8186C512.111 49.2207 509.57 49.3637 507.035 49.2451L495.714 48.9248C496.069 40.7373 498.739 35.3975 503.723 32.9055C505.337 32.059 507.134 31.6209 508.957 31.6297L508.955 31.6242ZM527.537 65.1563L524.868 64.1953C523.876 66.6752 522.23 68.8394 520.105 70.4569C517.98 72.0744 515.455 73.0844 512.801 73.3792C512.088 73.45 511.411 73.4854 510.771 73.4854C503.296 73.4854 498.597 69.0359 496.675 60.1369C496.081 57.4351 495.759 54.6803 495.714 51.9141L508.528 52.1282C517.214 52.271 522.802 51.4522 525.293 49.6716C526.238 48.974 526.997 48.053 527.5 46.991C528.004 45.929 528.236 44.7589 528.177 43.585C528.177 38.7438 525.721 34.8996 520.808 32.0525C517.142 29.9415 512.97 28.8706 508.741 28.9552C499.84 28.9552 493.469 32.6572 489.626 40.0612C487.587 44.097 486.56 48.5683 486.635 53.0893C486.635 61.9175 489.803 68.4672 496.139 72.7385C499.975 75.249 504.477 76.5511 509.061 76.4765C516.749 76.4765 522.409 73.7002 526.041 68.1475C526.596 67.1809 527.095 66.1834 527.537 65.16V65.1563ZM545.96 70.4961C546.011 69.4306 545.731 68.3753 545.157 67.4762C544.583 66.577 543.744 65.8783 542.756 65.4767C542.114 65.163 541.415 64.9833 540.702 64.9485C539.988 64.9137 539.275 65.0246 538.606 65.2743C537.936 65.524 537.325 65.9073 536.809 66.401C536.292 66.8946 535.882 67.4882 535.602 68.1456C535.257 68.8807 535.074 69.6819 535.068 70.4942C535.02 71.5315 535.291 72.5585 535.845 73.4369C536.399 74.3154 537.209 75.0031 538.165 75.4075C538.901 75.753 539.703 75.9353 540.515 75.942C541.552 75.9894 542.579 75.718 543.457 75.1642C544.335 74.6105 545.023 73.8009 545.427 72.8447C545.772 72.1107 545.954 71.3108 545.961 70.4997L545.96 70.4961Z" fill="white"/>
</svg>
